# This file uses centimeters as units for non-parametric coordinates.

mtllib Hoe.mtl
g default
v -0.007357 -0.964434 6.992642
v -0.020495 -0.919871 6.979505
v -0.000000 -0.964434 6.989595
v 0.000000 -0.919871 6.971016
v 0.007357 -0.964434 6.992642
v 0.020495 -0.919871 6.979505
v 0.000000 -0.964434 7.010405
v 0.000000 -0.919871 7.028984
v -0.007357 -0.964434 7.007358
v 0.007357 -0.964434 7.007358
v 0.020495 -0.919871 7.020495
v -0.020495 -0.919871 7.020495
v -0.075000 0.943748 6.943748
v -0.056252 0.943748 6.925000
v -0.056252 0.925000 6.943748
v -0.056252 0.925000 7.056250
v -0.056252 0.943748 7.074998
v -0.075000 0.943748 7.056250
v 0.056252 0.925000 6.943748
v 0.056252 0.943748 6.925000
v 0.075000 0.943748 6.943748
v -0.075000 1.056252 6.943748
v -0.056252 1.075000 6.943748
v -0.056252 1.056252 6.925000
v 0.075000 0.943748 7.056250
v 0.056252 0.943748 7.074998
v 0.056252 0.925000 7.056250
v -0.075000 1.056252 7.056250
v -0.056252 1.056252 7.074998
v -0.056252 1.075000 7.056250
v 0.056252 1.056252 6.925000
v 0.056252 1.075000 6.943748
v 0.075000 1.056252 6.943748
v -0.173571 1.078668 7.313545
v 0.056252 1.056252 7.074998
v -0.173583 1.052195 7.315012
v 0.056252 1.075000 7.056250
v 0.075000 1.056252 7.056250
v -0.202038 1.092494 7.563163
v 0.173571 1.052053 7.315332
v 0.173583 1.078527 7.313865
v -0.202053 1.066021 7.564631
v -0.195436 1.073792 7.585122
v -0.202049 1.093282 7.577398
v -0.202064 1.066809 7.578865
v -0.195429 1.087028 7.584389
v 0.201605 1.092352 7.563484
v 0.201590 1.065879 7.564949
v -0.010405 -0.964434 7.000000
v -0.028984 -0.919871 7.000000
v -0.064496 -0.834927 7.000000
v -0.045605 -0.834927 6.954395
v 0.000000 -0.834927 6.935504
v 0.028984 -0.919871 7.000000
v 0.010405 -0.964434 7.000000
v -0.045605 -0.834927 7.045605
v 0.045605 -0.834927 6.954395
v 0.000000 -0.834927 7.064496
v 0.064496 -0.834927 7.000000
v -0.070711 -0.631943 6.929289
v -0.100000 -0.631943 7.000000
v -0.000000 -0.631943 6.900000
v 0.045605 -0.834927 7.045605
v -0.070711 -0.631943 7.070711
v 0.070711 -0.631943 6.929289
v -0.000000 -0.631943 7.100000
v 0.100000 -0.631943 7.000000
v 0.070711 -0.631943 7.070711
v -0.100000 0.631943 7.000000
v -0.070711 0.631943 6.929289
v -0.000000 0.631943 6.900000
v -0.070711 0.631943 7.070711
v 0.070711 0.631943 6.929289
v -0.000000 0.631943 7.100000
v 0.100000 0.631943 7.000000
v 0.070711 0.631943 7.070711
v -0.045605 0.920000 6.954395
v -0.064496 0.920000 7.000000
v 0.000000 0.920000 6.935504
v -0.045605 0.920000 7.045605
v 0.045605 0.920000 6.954395
v 0.000000 0.920000 7.064496
v 0.064496 0.920000 7.000000
v -0.034191 0.925000 6.965808
v -0.048354 0.925000 7.000000
v 0.000000 0.925000 6.951646
v 0.045605 0.920000 7.045605
v -0.034191 0.925000 7.034192
v 0.034191 0.925000 6.965808
v 0.000000 0.925000 7.048354
v 0.048354 0.925000 7.000000
v 0.034191 0.925000 7.034192
v 0.201579 1.066668 7.579185
v 0.194949 1.073655 7.585431
v 0.201594 1.093141 7.577718
v 0.194956 1.086891 7.584698
vt 0.505756 0.145534
vt 0.503817 0.281527
vt 0.493908 0.271617
vt 0.491763 0.144758
vt 0.493908 0.281527
vt 0.513063 0.013598
vt 0.499071 0.012823
vt 0.434444 0.281527
vt 0.434444 0.271617
vt 0.503817 0.340990
vt 0.493908 0.340990
vt 0.499487 0.005299
vt 0.513480 0.006075
vt 0.424535 0.281527
vt 0.434444 0.340990
vt 0.493908 0.350899
vt 0.503178 0.001992
vt 0.510174 0.002379
vt 0.424535 0.340990
vt 0.434444 0.350899
vt 0.398997 0.081274
vt 0.408906 0.071364
vt 0.410770 0.207526
vt 0.396778 0.208302
vt 0.398997 0.071364
vt 0.404085 0.340236
vt 0.418078 0.339462
vt 0.339533 0.081274
vt 0.339533 0.071364
vt 0.398997 0.011901
vt 0.408906 0.011901
vt 0.418494 0.346986
vt 0.404502 0.347761
vt 0.329624 0.071364
vt 0.339533 0.011901
vt 0.398997 0.001992
vt 0.408195 0.351062
vt 0.415191 0.350675
vt 0.329624 0.011901
vt 0.339533 0.001992
vt 0.203230 0.001992
vt 0.203230 0.025546
vt 0.192397 0.025546
vt 0.199341 0.001992
vt 0.207119 0.001992
vt 0.214063 0.025546
vt 0.203230 0.070443
vt 0.179125 0.070443
vt 0.227335 0.070443
vt 0.165856 0.177730
vt 0.203230 0.177730
vt 0.240604 0.177730
vt 0.203230 0.845756
vt 0.165856 0.845756
vt 0.240604 0.845756
vt 0.179125 0.998008
vt 0.203230 0.998008
vt 0.227335 0.998008
vt 0.285114 0.025546
vt 0.285114 0.001992
vt 0.289003 0.001992
vt 0.295947 0.025546
vt 0.274281 0.025546
vt 0.281225 0.001992
vt 0.309218 0.070443
vt 0.285114 0.070443
vt 0.261009 0.070443
vt 0.322488 0.177730
vt 0.285114 0.177730
vt 0.247740 0.177730
vt 0.322488 0.845756
vt 0.285114 0.845756
vt 0.247740 0.845756
vt 0.309218 0.998008
vt 0.285114 0.998008
vt 0.261009 0.998008
vt 0.754671 0.128851
vt 0.816686 0.001992
vt 0.876150 0.001992
vt 0.938159 0.129020
vt 0.739624 0.260787
vt 0.952969 0.260955
vt 0.952963 0.268479
vt 0.739618 0.268310
vt 0.743121 0.271617
vt 0.949458 0.271781
vt 0.655971 0.281303
vt 0.596507 0.281303
vt 0.534498 0.145310
vt 0.717986 0.145141
vt 0.655971 0.340766
vt 0.596507 0.340766
vt 0.519451 0.013374
vt 0.732797 0.013205
vt 0.596507 0.350675
vt 0.655971 0.350675
vt 0.519446 0.005850
vt 0.732791 0.005681
vt 0.522945 0.002155
vt 0.729282 0.001992
vt 0.603349 0.406647
vt 0.597317 0.412680
vt 0.587332 0.388575
vt 0.595864 0.388575
vt 0.621421 0.414133
vt 0.621421 0.422664
vt 0.597317 0.364471
vt 0.603349 0.370503
vt 0.639493 0.406647
vt 0.645526 0.412680
vt 0.621421 0.354486
vt 0.621421 0.363018
vt 0.646979 0.388575
vt 0.655510 0.388575
vt 0.645526 0.364471
vt 0.639493 0.370503
vt 0.449219 0.356321
vt 0.450829 0.360210
vt 0.449219 0.364098
vt 0.445330 0.365709
vt 0.441441 0.364098
vt 0.439831 0.360210
vt 0.441441 0.356321
vt 0.445330 0.354710
vt 0.661369 0.364395
vt 0.720832 0.364395
vt 0.716658 0.394127
vt 0.709172 0.376055
vt 0.691101 0.368570
vt 0.673029 0.376055
vt 0.665543 0.394127
vt 0.661369 0.423858
vt 0.661369 0.354486
vt 0.720832 0.354486
vt 0.720832 0.423858
vt 0.673029 0.412199
vt 0.691101 0.419685
vt 0.709172 0.412199
vt 0.661369 0.433768
vt 0.720832 0.433768
vt 0.039276 0.998008
vt 0.035387 0.998008
vt 0.028444 0.974454
vt 0.039276 0.974454
vt 0.015172 0.929557
vt 0.039276 0.929557
vt 0.043165 0.998008
vt 0.050109 0.974454
vt 0.039276 0.822270
vt 0.001902 0.822270
vt 0.063381 0.929557
vt 0.076650 0.822270
vt 0.001902 0.154244
vt 0.039276 0.154244
vt 0.076650 0.154244
vt 0.039276 0.001992
vt 0.015172 0.001992
vt 0.063381 0.001992
vt 0.117457 0.001992
vt 0.121346 0.001992
vt 0.121346 0.025546
vt 0.110514 0.025546
vt 0.125235 0.001992
vt 0.132179 0.025546
vt 0.121346 0.070443
vt 0.097242 0.070443
vt 0.145451 0.070443
vt 0.083972 0.177730
vt 0.121346 0.177730
vt 0.158720 0.177730
vt 0.121346 0.845756
vt 0.083972 0.845756
vt 0.158720 0.845756
vt 0.097242 0.998008
vt 0.121346 0.998008
vt 0.145451 0.998008
vt 0.522010 0.413950
vt 0.522010 0.354486
vt 0.581474 0.354486
vt 0.581474 0.413950
vt 0.456688 0.354710
vt 0.516152 0.354710
vt 0.516152 0.414174
vt 0.456688 0.414174
vt 0.733759 0.560824
vt 0.726763 0.560828
vt 0.726691 0.354490
vt 0.733687 0.354486
vn 0.000000 -0.602642 -0.798011
vn -0.564277 -0.602632 -0.564294
vn -0.652429 -0.385571 -0.652435
vn 0.000000 -0.385569 -0.922679
vn 0.564277 -0.602632 -0.564293
vn 0.652429 -0.385571 -0.652435
vn -0.564276 -0.602631 0.564294
vn 0.000000 -0.602642 0.798011
vn -0.000000 -0.385569 0.922679
vn -0.652429 -0.385571 0.652435
vn 0.564277 -0.602632 0.564293
vn 0.652430 -0.385571 0.652435
vn -0.577347 -0.577357 -0.577347
vn -0.577347 -0.577357 -0.577347
vn -0.577347 -0.577357 -0.577347
vn -0.577347 -0.577357 0.577347
vn -0.577347 -0.577357 0.577347
vn -0.577347 -0.577357 0.577347
vn 0.577347 -0.577357 -0.577347
vn 0.577347 -0.577357 -0.577347
vn 0.577347 -0.577357 -0.577347
vn -0.577378 0.577338 -0.577335
vn -0.577378 0.577338 -0.577335
vn -0.577378 0.577338 -0.577335
vn 0.577347 -0.577357 0.577347
vn 0.577347 -0.577357 0.577347
vn 0.577347 -0.577357 0.577347
vn -0.577345 0.577355 0.577351
vn -0.577345 0.577355 0.577351
vn -0.577345 0.577355 0.577351
vn 0.577378 0.577338 -0.577335
vn 0.577378 0.577338 -0.577335
vn 0.577378 0.577338 -0.577335
vn -0.958380 -0.096843 -0.268570
vn -0.888336 -0.187208 -0.419300
vn -0.888336 -0.187208 -0.419300
vn -0.960114 -0.093790 -0.263411
vn -0.000388 -0.999388 0.034969
vn -0.000296 -0.999852 -0.017184
vn -0.000296 -0.999852 -0.017184
vn -0.000388 -0.999388 0.034986
vn 0.000318 0.999902 -0.013972
vn 0.000318 0.999902 -0.013972
vn 0.000392 0.999079 -0.042912
vn 0.000392 0.999078 -0.042923
vn 0.577345 0.577355 0.577351
vn 0.577345 0.577355 0.577351
vn 0.577345 0.577355 0.577351
vn -0.994243 -0.005438 -0.107014
vn -0.994243 -0.005438 -0.107013
vn 0.888451 -0.187510 -0.418921
vn 0.888451 -0.187510 -0.418921
vn 0.958596 -0.097508 -0.267557
vn 0.960332 -0.094463 -0.262374
vn -0.000422 -0.998470 0.055303
vn -0.000422 -0.998470 0.055303
vn -0.707684 0.039457 0.705426
vn -0.707684 0.039457 0.705426
vn -0.707684 0.039457 0.705426
vn -0.707684 0.039457 0.705426
vn 0.000422 0.998470 -0.055303
vn 0.000422 0.998470 -0.055303
vn 0.994430 -0.006321 -0.105215
vn 0.994430 -0.006321 -0.105213
vn -0.798024 -0.602626 0.000001
vn -0.922680 -0.385566 0.000000
vn -0.905925 -0.196189 -0.375247
vn -0.905925 -0.196189 -0.375247
vn -0.375245 -0.196189 -0.905926
vn -0.375245 -0.196189 -0.905926
vn 0.922680 -0.385567 -0.000000
vn 0.798024 -0.602626 -0.000000
vn -0.905926 -0.196188 0.375244
vn -0.905926 -0.196188 0.375244
vn 0.375245 -0.196189 -0.905926
vn 0.375245 -0.196189 -0.905926
vn -0.375245 -0.196189 0.905926
vn -0.375245 -0.196189 0.905926
vn 0.905925 -0.196189 -0.375247
vn 0.905925 -0.196189 -0.375247
vn -0.923728 -0.018149 -0.382619
vn -0.923728 -0.018149 -0.382619
vn -0.382616 -0.018149 -0.923729
vn -0.382616 -0.018149 -0.923729
vn 0.375245 -0.196189 0.905926
vn 0.375245 -0.196189 0.905926
vn 0.905926 -0.196188 0.375245
vn 0.905926 -0.196188 0.375245
vn -0.923727 -0.018149 0.382622
vn -0.923727 -0.018149 0.382622
vn 0.382616 -0.018149 -0.923729
vn 0.382616 -0.018149 -0.923729
vn -0.382624 -0.018149 0.923726
vn -0.382624 -0.018149 0.923726
vn 0.923728 -0.018149 -0.382619
vn 0.923728 -0.018149 -0.382619
vn 0.382623 -0.018149 0.923726
vn 0.382623 -0.018149 0.923726
vn 0.923727 -0.018149 0.382622
vn 0.923727 -0.018149 0.382622
vn -0.923738 0.017520 -0.382623
vn -0.923738 0.017520 -0.382623
vn -0.382621 0.017520 -0.923739
vn -0.382621 0.017520 -0.923739
vn -0.923737 0.017520 0.382626
vn -0.923737 0.017520 0.382626
vn 0.382621 0.017520 -0.923739
vn 0.382621 0.017520 -0.923739
vn -0.382627 0.017520 0.923737
vn -0.382627 0.017520 0.923737
vn 0.923738 0.017520 -0.382624
vn 0.923738 0.017520 -0.382624
vn 0.382627 0.017520 0.923737
vn 0.382627 0.017520 0.923737
vn 0.923737 0.017520 0.382626
vn 0.923737 0.017520 0.382627
vn -0.699246 0.148695 -0.699246
vn -0.988883 0.148696 0.000000
vn 0.000000 0.148695 -0.988883
vn -0.699244 0.148696 0.699248
vn 0.699246 0.148695 -0.699246
vn -0.000000 0.148695 0.988883
vn 0.988883 0.148696 -0.000000
vn -0.209226 0.955222 -0.209228
vn -0.295891 0.955222 -0.000001
vn 0.000000 0.955221 -0.295894
vn -0.707109 -0.707105 0.000000
vn -0.707109 -0.707105 0.000000
vn -0.707109 -0.707105 0.000000
vn -0.707109 -0.707105 0.000000
vn 0.000000 -0.707110 -0.707104
vn 0.000000 -0.707110 -0.707104
vn 0.000000 -0.707110 -0.707104
vn 0.000000 -0.707110 -0.707104
vn -0.707107 0.000000 -0.707107
vn -0.707107 0.000000 -0.707107
vn -0.707107 0.000000 -0.707107
vn -0.707107 0.000000 -0.707107
vn 0.699244 0.148695 0.699248
vn -0.209226 0.955222 0.209227
vn 0.209226 0.955222 -0.209227
vn -1.000000 0.000000 0.000000
vn -1.000000 0.000000 0.000000
vn -1.000000 0.000000 0.000000
vn -1.000000 0.000000 0.000000
vn 0.000000 0.000000 -1.000000
vn 0.000000 0.000000 -1.000000
vn 0.000000 0.000000 -1.000000
vn 0.000000 0.000000 -1.000000
vn -0.000000 0.955221 0.295894
vn 0.295891 0.955222 0.000001
vn 0.209226 0.955222 0.209228
vn 0.000000 -0.707110 0.707104
vn 0.000000 -0.707110 0.707104
vn 0.000000 -0.707110 0.707104
vn 0.000000 -0.707110 0.707104
vn -0.707116 0.000000 0.707097
vn -0.707116 0.000000 0.707097
vn -0.707116 0.000000 0.707097
vn -0.707116 0.000000 0.707097
vn 0.707109 -0.707105 0.000000
vn 0.707109 -0.707105 0.000000
vn 0.707109 -0.707105 0.000000
vn 0.707109 -0.707105 0.000000
vn -0.707106 0.707108 0.000000
vn -0.707106 0.707108 0.000000
vn -0.707106 0.707108 0.000000
vn -0.707106 0.707108 0.000000
vn 0.707107 0.000000 -0.707107
vn 0.707107 0.000000 -0.707107
vn 0.707107 0.000000 -0.707107
vn 0.707107 0.000000 -0.707107
vn 0.000000 0.707111 -0.707103
vn 0.000000 0.707111 -0.707103
vn 0.000000 0.707111 -0.707103
vn 0.000000 0.707111 -0.707103
vn 0.000000 0.000000 1.000000
vn 0.000000 0.000000 1.000000
vn 0.000000 0.000000 1.000000
vn 0.000000 0.000000 1.000000
vn 0.000000 1.000000 0.000000
vn 0.000000 1.000000 0.000000
vn 0.000000 1.000000 0.000000
vn 0.000000 1.000000 0.000000
vn 1.000000 0.000000 0.000000
vn 1.000000 0.000000 0.000000
vn 1.000000 0.000000 0.000000
vn 1.000000 0.000000 0.000000
vn 0.707116 0.000000 0.707097
vn 0.707116 0.000000 0.707097
vn 0.707116 0.000000 0.707097
vn 0.707116 0.000000 0.707097
vn 0.707106 0.707108 0.000000
vn 0.707106 0.707108 0.000000
vn 0.707106 0.707108 0.000000
vn 0.707106 0.707108 0.000000
vn -1.000000 0.000489 -0.000799
vn -1.000000 0.000489 -0.000799
vn -0.000394 -0.998469 0.055308
vn -0.000394 -0.998469 0.055308
vn -0.000824 -0.666897 0.745150
vn -0.000824 -0.666897 0.745150
vn -0.000824 -0.666897 0.745150
vn -0.000824 -0.666897 0.745150
vn 0.000394 0.998469 -0.055320
vn 0.000394 0.998469 -0.055320
vn -0.000770 0.055270 0.998471
vn -0.000770 0.055270 0.998471
vn -0.000770 0.055270 0.998471
vn -0.000770 0.055270 0.998471
vn -0.000267 0.745147 0.666900
vn -0.000267 0.745147 0.666900
vn -0.000267 0.745147 0.666900
vn -0.000267 0.745147 0.666900
vn 1.000000 -0.000487 0.000798
vn 1.000000 -0.000487 0.000798
vn 0.706561 0.038750 0.706591
vn 0.706561 0.038750 0.706591
vn 0.706561 0.038750 0.706591
vn 0.706561 0.038750 0.706591
vn 0.000000 -1.000000 0.000000
vn 0.000000 -1.000000 0.000000
vn 0.000000 -1.000000 0.000001
vn 0.000000 -1.000000 0.000000
vn 0.000000 -1.000000 0.000000
vn 0.000000 -1.000000 0.000000
vn 0.000000 -1.000000 0.000000
vn 0.000000 -1.000000 0.000001
vn 0.000000 -1.000000 0.000001
vn 0.000000 -1.000000 0.000001
vn 0.000000 -1.000000 0.000001
vn 0.000000 -1.000000 0.000001
s 1
g polySurface3
f 3/141/1 1/142/2 2/143/3 4/144/4
f 5/147/5 3/141/1 4/144/4 6/148/6
f 9/159/7 7/160/8 8/161/9 12/162/10
f 7/160/8 10/163/11 11/164/12 8/161/9
s off
f 13/15/13 14/20/14 15/19/15
f 16/14/16 17/9/17 18/8/18
f 19/39/19 20/40/20 21/35/21
f 22/11/22 23/10/23 24/16/24
f 25/29/25 26/28/26 27/34/27
f 28/5/28 29/3/29 30/2/30
f 31/36/31 32/31/32 33/30/33
s 2
f 34/1/34 30/2/35 29/3/36 36/4/37
s 3
f 36/77/38 29/78/39 35/79/40 40/80/41
s 4
f 37/87/42 30/88/43 34/89/44 41/90/45
s off
f 37/22/46 35/21/47 38/25/48
s 2
f 39/6/49 34/1/34 36/4/37 42/7/50
s 5
f 35/21/51 37/22/52 41/23/53 40/24/54
s 3
f 42/81/55 36/77/38 40/80/41 48/82/56
s off
f 44/13/57 45/12/58 43/17/59 46/18/60
s 4
f 34/89/44 39/93/61 47/94/62 41/90/45
s 5
f 48/26/63 40/24/54 41/23/53 47/27/64
s 1
f 49/41/65 50/42/66 2/43/3 1/44/2
f 9/45/7 12/46/10 50/42/66 49/41/65
f 51/47/67 52/48/68 2/43/3 50/42/66
f 52/145/69 53/146/70 4/144/4 2/143/3
f 54/59/71 55/60/72 5/61/5 6/62/6
f 11/63/12 10/64/11 55/60/72 54/59/71
f 56/49/73 51/47/74 50/42/66 12/46/10
f 53/146/75 57/151/76 6/148/6 4/144/4
f 58/165/77 56/166/78 12/162/10 8/161/9
f 57/65/79 59/66/80 54/59/71 6/62/6
f 60/50/81 52/48/68 51/47/67 61/51/82
f 62/149/83 53/146/70 52/145/69 60/150/84
f 63/167/85 58/165/86 8/161/9 11/164/12
f 59/66/87 63/67/88 11/63/12 54/59/71
f 61/51/89 51/47/74 56/49/73 64/52/90
f 65/152/91 57/151/76 53/146/75 62/149/92
f 64/168/93 56/166/78 58/165/77 66/169/94
f 57/65/79 65/68/95 67/69/96 59/66/80
f 66/169/97 58/165/86 63/167/85 68/170/98
f 68/70/99 63/67/88 59/66/87 67/69/100
f 60/50/81 61/51/82 69/53/101 70/54/102
f 62/149/83 60/150/84 70/153/103 71/154/104
f 61/51/89 64/52/90 72/55/105 69/53/106
f 65/152/91 62/149/92 71/154/107 73/155/108
f 64/168/93 66/169/94 74/171/109 72/172/110
f 67/69/96 65/68/95 73/71/111 75/72/112
f 66/169/97 68/170/98 76/173/113 74/171/114
f 68/70/99 67/69/100 75/72/115 76/73/116
f 77/56/117 70/54/102 69/53/101 78/57/118
f 79/156/119 71/154/104 70/153/103 77/157/117
f 78/57/118 69/53/106 72/55/105 80/58/120
f 81/158/121 73/155/108 71/154/107 79/156/119
f 80/174/120 72/172/110 74/171/109 82/175/122
f 73/71/111 81/74/121 83/75/123 75/72/112
f 84/101/124 77/102/117 78/103/118 85/104/125
f 86/105/126 79/106/119 77/102/117 84/101/124
s off
f 16/14/127 18/8/128 13/15/129 15/19/130
f 15/125/131 14/133/132 20/134/133 19/126/134
f 22/11/135 24/16/136 14/20/137 13/15/138
s 1
f 82/175/122 74/171/114 76/173/113 87/176/139
f 87/76/139 76/73/116 75/72/115 83/75/123
f 85/104/125 78/103/118 80/107/120 88/108/140
f 89/109/141 81/110/121 79/106/119 86/105/126
s off
f 13/15/142 18/8/143 28/5/144 22/11/145
f 24/177/146 31/178/147 20/179/148 14/180/149
s 1
f 88/108/140 80/107/120 82/111/122 90/112/150
f 91/113/151 83/114/123 81/110/121 89/109/141
f 90/112/150 82/111/122 87/115/139 92/116/152
f 92/116/152 87/115/139 83/114/123 91/113/151
s off
f 17/139/153 16/132/154 27/135/155 26/140/156
f 18/8/157 17/9/158 29/3/159 28/5/160
f 25/29/161 27/34/162 19/39/163 21/35/164
f 28/5/165 30/2/166 23/10/167 22/11/168
f 31/36/169 33/30/170 21/35/171 20/40/172
f 24/95/173 23/92/174 32/91/175 31/96/176
f 17/181/177 26/182/178 35/183/179 29/184/180
f 30/88/181 37/87/182 32/91/183 23/92/184
f 25/29/185 21/35/186 33/30/187 38/25/188
f 26/28/189 25/29/190 38/25/191 35/21/192
f 37/22/193 38/25/194 33/30/195 32/31/196
s 2
f 39/6/49 42/7/50 45/12/197 44/13/198
s 3
f 42/81/55 48/82/56 93/83/199 45/84/200
s off
f 43/85/201 45/84/202 93/83/203 94/86/204
s 4
f 47/94/62 39/93/61 44/97/205 95/98/206
s off
f 46/185/207 43/186/208 94/187/209 96/188/210
f 44/97/211 46/99/212 96/100/213 95/98/214
s 5
f 48/26/63 47/27/64 95/32/215 93/33/216
s off
f 94/37/217 93/33/218 95/32/219 96/38/220
s 1
f 10/117/11 7/118/8 9/119/7 49/120/65 1/121/2 3/122/1 5/123/5 55/124/72
s 6
f 15/125/221 19/126/222 91/127/223 89/128/224 86/129/225 84/130/226 85/131/227 16/132/228
f 19/126/222 27/135/229 16/132/228 85/131/227 88/136/230 90/137/231 92/138/232 91/127/223
