# Blender 3.3.1
# www.blender.org
mtllib Final project barn.mtl
o Cube
v -0.500000 1.000000 -5.000000
v -0.500000 -1.000000 -5.000000
v -0.500000 1.000000 5.000000
v -0.500000 -1.000000 5.000000
v -1.000000 1.000000 -5.000000
v -1.000000 -1.000000 -5.000000
v -1.000000 1.000000 5.000000
v -1.000000 -1.000000 5.000000
v -0.500000 -1.000000 -5.500000
v -1.000000 -1.000000 -5.500000
v -0.500000 1.000000 -5.500000
v -1.000000 -1.000000 5.500000
v -1.000000 1.000000 5.500000
v -0.500000 1.000000 5.500000
v -0.500000 -1.000000 5.500000
v -1.000000 1.000000 -5.500000
v 14.500000 1.000000 -5.000000
v 14.500000 -1.000000 -5.000000
v 14.500000 1.000000 5.000000
v 14.500000 -1.000000 5.000000
v 14.500000 1.000000 -5.500000
v 14.500000 -1.000000 -5.500000
v 14.500000 1.000000 5.500000
v 14.500000 -1.000000 5.500000
v 15.000000 1.000000 -5.000000
v 15.000000 -1.000000 -5.000000
v 15.000000 1.000000 5.000000
v 15.000000 -1.000000 5.000000
v 15.000000 1.000000 -5.500000
v 15.000000 -1.000000 -5.500000
v 15.000000 1.000000 5.500000
v 15.000000 -1.000000 5.500000
v 14.500000 1.000000 -2.500000
v 14.500000 -1.000000 -2.500000
v 14.500000 1.000000 2.500000
v 14.500000 -1.000000 2.500000
v 15.000000 1.000000 -2.500000
v 15.000000 -1.000000 -2.500000
v 15.000000 1.000000 2.500000
v 15.000000 -1.000000 2.500000
v -0.500000 3.000000 5.000000
v -1.000000 3.000000 5.000000
v -0.500000 3.000000 -5.000000
v -1.000000 3.000000 -5.000000
v -0.500000 3.000000 5.500000
v -1.000000 3.000000 5.500000
v -1.000000 3.000000 -5.500000
v -0.500000 3.000000 -5.500000
v 14.500000 3.000000 5.500000
v 14.500000 3.000000 5.000000
v 14.500000 3.000000 -5.500000
v 14.500000 3.000000 -5.000000
v 15.000000 3.000000 5.500000
v 15.000000 3.000000 5.000000
v 15.000000 3.000000 -5.500000
v 15.000000 3.000000 -5.000000
v 15.000000 3.000000 -2.500000
v 14.500000 3.000000 -2.500000
v 15.000000 3.000000 2.500000
v 14.500000 3.000000 2.500000
v -0.500000 5.000000 5.000000
v -1.000000 5.000000 5.000000
v -0.500000 5.000000 -5.000000
v -1.000000 5.000000 -5.000000
v -0.500000 5.000000 5.500000
v -1.000000 5.000000 5.500000
v -1.000000 5.000000 -5.500000
v -0.500000 5.000000 -5.500000
v 14.500000 5.000000 5.500000
v 14.500000 5.000000 5.000000
v 14.500000 5.000000 -5.500000
v 14.500000 5.000000 -5.000000
v 15.000000 5.000000 5.500000
v 15.000000 5.000000 5.000000
v 15.000000 5.000000 -5.500000
v 15.000000 5.000000 -5.000000
v 15.000000 5.000000 -2.500000
v 14.500000 5.000000 -2.500000
v 15.000000 5.000000 2.500000
v 14.500000 5.000000 2.500000
v -1.000000 -1.000000 0.000000
v -0.500000 1.000000 0.000000
v -1.000000 1.000000 0.000000
v -0.500000 -1.000000 0.000000
v -0.500000 3.000000 0.000000
v -1.000000 3.000000 0.000000
v -0.500000 5.000000 0.000000
v -1.000000 5.000000 0.000000
v -0.500000 5.500000 5.000000
v -1.000000 5.500000 5.000000
v -0.500000 5.500000 0.000000
v -1.000000 5.500000 0.000000
v -1.000000 5.500000 -5.000000
v -0.500000 5.500000 -5.000000
v -0.500000 5.500000 5.500000
v -1.000000 5.500000 5.500000
v -1.000000 5.500000 -5.500000
v -0.500000 5.500000 -5.500000
v 14.500000 5.500000 5.500000
v 14.500000 5.500000 5.000000
v 14.500000 5.500000 -5.500000
v 14.500000 5.500000 -5.000000
v 15.000000 5.500000 5.500000
v 15.000000 5.500000 5.000000
v 15.000000 5.500000 -5.500000
v 15.000000 5.500000 -5.000000
v 15.000000 5.500000 -2.500000
v 14.500000 5.500000 -2.500000
v 15.000000 5.500000 2.500000
v 14.500000 5.500000 2.500000
v -1.000000 1.000000 -2.500000
v -0.500000 -1.000000 -2.500000
v -1.000000 3.000000 -2.500000
v -1.000000 5.000000 -2.500000
v -1.000000 -1.000000 -2.500000
v -0.500000 1.000000 -2.500000
v -0.500000 3.000000 -2.500000
v -0.500000 5.000000 -2.500000
v -1.000000 5.500000 -2.500000
v -0.500000 5.500000 -2.500000
v -1.000000 -1.000000 2.500000
v -0.500000 1.000000 2.500000
v -0.500000 3.000000 2.500000
v -0.500000 5.000000 2.500000
v -1.000000 1.000000 2.500000
v -0.500000 -1.000000 2.500000
v -1.000000 3.000000 2.500000
v -1.000000 5.000000 2.500000
v -0.500000 5.500000 2.500000
v -1.000000 5.500000 2.500000
v -0.500000 6.498584 5.000000
v -1.000000 6.498584 5.000000
v -0.500000 7.362650 2.500000
v -1.000000 7.362650 -2.500000
v -1.000000 6.498584 -5.000000
v -0.500000 6.498584 -5.000000
v -0.500000 6.000000 5.500000
v -1.000000 6.000000 5.500000
v -1.000000 6.000000 -5.500000
v -0.500000 6.000000 -5.500000
v 14.500000 6.000000 5.500000
v 14.500000 6.498584 5.000000
v 14.500000 6.000000 -5.500000
v 14.500000 6.498584 -5.000000
v 15.000000 6.000000 5.500000
v 15.000000 6.498584 5.000000
v 15.000000 6.000000 -5.500000
v 15.000000 6.498584 -5.000000
v 15.000000 7.362650 -2.500000
v 14.500000 7.362650 -2.500000
v 15.000000 7.362650 2.500000
v 14.500000 7.362650 2.500000
v -0.500000 7.362650 -2.500000
v -0.500000 7.861179 0.000000
v -1.000000 7.362650 2.500000
v -1.000000 7.861179 0.000000
v 14.500000 7.861179 0.000000
v 15.000000 7.861179 0.000000
v 15.000000 5.500000 0.000000
v 14.500000 5.500000 0.000000
v -0.500000 6.998584 5.000000
v -1.000000 6.998584 5.000000
v -0.500000 7.862650 2.500000
v -1.000000 7.862650 -2.500000
v -1.000000 6.998584 -5.000000
v -0.500000 6.998584 -5.000000
v -0.500000 6.500000 5.500000
v -1.000000 6.500000 5.500000
v -1.000000 6.500000 -5.500000
v -0.500000 6.500000 -5.500000
v 14.500000 6.500000 5.500000
v 14.500000 6.998584 5.000000
v 14.500000 6.500000 -5.500000
v 14.500000 6.998584 -5.000000
v 15.000000 6.500000 5.500000
v 15.000000 6.998584 5.000000
v 15.000000 6.500000 -5.500000
v 15.000000 6.998584 -5.000000
v 15.000000 7.862650 -2.500000
v 14.500000 7.862650 -2.500000
v 15.000000 7.862650 2.500000
v 14.500000 7.862650 2.500000
v -0.500000 7.862650 -2.500000
v -0.500000 8.361179 0.000000
v -1.000000 7.862650 2.500000
v -1.000000 8.361179 0.000000
v 14.500000 8.361179 0.000000
v 15.000000 8.361179 0.000000
vn 1.0000 -0.0000 -0.0000
vn -1.0000 -0.0000 -0.0000
vn -0.0000 -1.0000 -0.0000
vn -0.0000 -0.0000 1.0000
vn -0.0000 -0.0000 -1.0000
vn -0.0000 0.9451 -0.3267
vn -0.0000 0.9807 -0.1956
vn -0.0000 0.9807 0.1956
vn -0.0000 0.9451 0.3267
vn -0.0000 1.0000 -0.0000
vn -0.0000 -0.9451 -0.3267
vn -0.0000 0.7081 0.7061
vn -0.0000 0.7081 -0.7061
vn -0.0000 -0.9807 -0.1956
vn -0.0000 -0.9807 0.1956
vn -0.0000 -0.9451 0.3267
vt 0.625000 0.500000
vt 0.375000 0.500000
vt 0.625000 0.750000
vt 0.375000 0.750000
vt 0.625000 0.250000
vt 0.375000 0.250000
vt 0.125000 0.500000
vt 0.625000 0.000000
vt 0.125000 0.750000
vt 0.375000 0.000000
vt 0.375000 0.500000
vt 0.375000 0.250000
vt 0.125000 0.500000
vt 0.625000 0.500000
vt 0.125000 0.750000
vt 0.375000 1.000000
vt 0.375000 0.000000
vt 0.625000 0.000000
vt 0.625000 1.000000
vt 0.625000 0.750000
vt 0.375000 0.750000
vt 0.625000 0.250000
vt 0.625000 0.500000
vt 0.375000 0.500000
vt 0.625000 0.750000
vt 0.375000 0.750000
vt 0.625000 0.500000
vt 0.375000 0.500000
vt 0.625000 0.750000
vt 0.375000 0.750000
vt 0.625000 0.500000
vt 0.375000 0.500000
vt 0.625000 0.750000
vt 0.375000 0.750000
vt 0.625000 0.500000
vt 0.375000 0.500000
vt 0.625000 0.750000
vt 0.375000 0.750000
vt 0.625000 0.500000
vt 0.375000 0.500000
vt 0.625000 0.750000
vt 0.375000 0.750000
vt 0.625000 0.500000
vt 0.375000 0.500000
vt 0.625000 0.750000
vt 0.375000 0.750000
vt 0.625000 0.750000
vt 0.625000 0.000000
vt 0.625000 0.500000
vt 0.625000 0.250000
vt 0.625000 0.750000
vt 0.625000 1.000000
vt 0.625000 0.000000
vt 0.625000 0.250000
vt 0.625000 0.500000
vt 0.625000 0.750000
vt 0.625000 0.750000
vt 0.625000 0.500000
vt 0.625000 0.500000
vt 0.625000 0.750000
vt 0.625000 0.750000
vt 0.625000 0.500000
vt 0.625000 0.500000
vt 0.625000 0.500000
vt 0.625000 0.500000
vt 0.625000 0.750000
vt 0.625000 0.750000
vt 0.625000 0.750000
vt 0.625000 0.000000
vt 0.625000 0.500000
vt 0.625000 0.250000
vt 0.625000 0.750000
vt 0.625000 1.000000
vt 0.625000 0.000000
vt 0.625000 0.250000
vt 0.625000 0.500000
vt 0.625000 0.750000
vt 0.625000 0.750000
vt 0.625000 0.500000
vt 0.625000 0.500000
vt 0.625000 0.750000
vt 0.625000 0.750000
vt 0.625000 0.500000
vt 0.625000 0.500000
vt 0.625000 0.500000
vt 0.625000 0.500000
vt 0.625000 0.750000
vt 0.625000 0.750000
vt 0.375000 0.125000
vt 0.125000 0.625000
vt 0.625000 0.625000
vt 0.625000 0.125000
vt 0.375000 0.625000
vt 0.625000 0.625000
vt 0.625000 0.125000
vt 0.625000 0.625000
vt 0.625000 0.125000
vt 0.625000 0.750000
vt 0.625000 0.000000
vt 0.625000 0.625000
vt 0.625000 0.125000
vt 0.625000 0.250000
vt 0.625000 0.500000
vt 0.625000 0.750000
vt 0.625000 1.000000
vt 0.625000 0.000000
vt 0.625000 0.250000
vt 0.625000 0.500000
vt 0.625000 0.750000
vt 0.625000 0.750000
vt 0.625000 0.500000
vt 0.625000 0.500000
vt 0.625000 0.750000
vt 0.625000 0.750000
vt 0.625000 0.500000
vt 0.625000 0.500000
vt 0.625000 0.500000
vt 0.625000 0.500000
vt 0.625000 0.750000
vt 0.625000 0.750000
vt 0.625000 0.187500
vt 0.375000 0.562500
vt 0.625000 0.187500
vt 0.625000 0.187500
vt 0.125000 0.562500
vt 0.375000 0.187500
vt 0.625000 0.562500
vt 0.625000 0.562500
vt 0.625000 0.562500
vt 0.625000 0.187500
vt 0.625000 0.562500
vt 0.375000 0.062500
vt 0.125000 0.687500
vt 0.625000 0.687500
vt 0.625000 0.687500
vt 0.625000 0.687500
vt 0.625000 0.062500
vt 0.375000 0.687500
vt 0.625000 0.062500
vt 0.625000 0.062500
vt 0.625000 0.687500
vt 0.625000 0.062500
vt 0.625000 0.750000
vt 0.625000 0.000000
vt 0.625000 0.687500
vt 0.625000 0.187500
vt 0.625000 0.250000
vt 0.625000 0.500000
vt 0.625000 0.750000
vt 0.625000 1.000000
vt 0.625000 0.000000
vt 0.625000 0.250000
vt 0.625000 0.500000
vt 0.625000 0.750000
vt 0.625000 0.750000
vt 0.625000 0.500000
vt 0.625000 0.500000
vt 0.625000 0.750000
vt 0.625000 0.750000
vt 0.625000 0.500000
vt 0.625000 0.500000
vt 0.625000 0.500000
vt 0.625000 0.500000
vt 0.625000 0.750000
vt 0.625000 0.750000
vt 0.625000 0.562500
vt 0.625000 0.625000
vt 0.625000 0.062500
vt 0.625000 0.125000
vt 0.625000 0.625000
vt 0.625000 0.625000
vt 0.625000 0.625000
vt 0.625000 0.625000
vt 0.625000 0.750000
vt 0.875000 0.750000
vt 0.625000 0.000000
vt 0.625000 0.687500
vt 0.875000 0.562500
vt 0.625000 0.187500
vt 0.875000 0.500000
vt 0.625000 0.250000
vt 0.625000 0.500000
vt 0.625000 0.750000
vt 0.875000 0.750000
vt 0.625000 1.000000
vt 0.625000 0.000000
vt 0.875000 0.500000
vt 0.625000 0.250000
vt 0.625000 0.500000
vt 0.625000 0.750000
vt 0.625000 0.750000
vt 0.625000 0.500000
vt 0.625000 0.500000
vt 0.625000 0.750000
vt 0.625000 0.750000
vt 0.625000 0.500000
vt 0.625000 0.500000
vt 0.625000 0.500000
vt 0.625000 0.500000
vt 0.625000 0.750000
vt 0.625000 0.750000
vt 0.625000 0.562500
vt 0.625000 0.625000
vt 0.875000 0.687500
vt 0.625000 0.062500
vt 0.875000 0.625000
vt 0.625000 0.125000
vt 0.625000 0.625000
vt 0.625000 0.625000
s 0
usemtl Material
f 27/33/1 39/45/1 59/66/1 54/61/1
f 7/8/2 13/18/2 46/53/2 42/48/2
f 115/126/2 111/121/2 5/5/2 6/6/2
f 121/133/3 126/138/3 4/4/3 8/9/3
f 126/138/1 122/134/1 3/3/1 4/4/1
f 8/9/3 4/4/3 15/21/3 12/15/3
f 15/21/4 14/20/4 13/19/4 12/16/4
f 10/12/5 16/22/5 11/14/5 9/11/5
f 14/20/4 15/21/4 24/30/4 23/29/4
f 4/4/5 3/3/5 19/25/5 20/26/5
f 6/6/2 5/5/2 16/22/2 10/12/2
f 7/8/2 8/10/2 12/17/2 13/18/2
f 2/2/3 6/7/3 10/13/3 9/11/3
f 116/127/1 1/1/1 43/49/1 117/128/1
f 39/45/5 35/41/5 60/67/5 59/66/5
f 26/32/1 25/31/1 37/43/1 38/44/1
f 2/2/3 9/11/3 22/28/3 18/24/3
f 1/1/4 2/2/4 18/24/4 17/23/4
f 9/11/5 11/14/5 21/27/5 22/28/5
f 15/21/3 4/4/3 20/26/3 24/30/3
f 25/31/1 29/35/1 55/62/1 56/63/1
f 19/25/5 3/3/5 41/47/5 50/57/5
f 28/34/1 27/33/1 31/37/1 32/38/1
f 25/31/1 26/32/1 30/36/1 29/35/1
f 21/27/5 11/14/5 48/55/5 51/58/5
f 23/29/4 24/30/4 32/38/4 31/37/4
f 17/23/2 18/24/2 34/40/2 33/39/2
f 18/24/3 22/28/3 30/36/3 26/32/3
f 24/30/3 20/26/3 28/34/3 32/38/3
f 22/28/5 21/27/5 29/35/5 30/36/5
f 33/39/4 34/40/4 38/44/4 37/43/4
f 36/42/5 35/41/5 39/45/5 40/46/5
f 33/39/4 37/43/4 57/64/4 58/65/4
f 20/26/2 19/25/2 35/41/2 36/42/2
f 28/34/3 20/26/3 36/42/3 40/46/3
f 35/41/2 19/25/2 50/57/2 60/67/2
f 27/33/1 28/34/1 40/46/1 39/45/1
f 18/24/3 26/32/3 38/44/3 34/40/3
f 54/61/1 59/66/1 79/87/1 74/82/1
f 50/57/5 41/47/5 61/68/5 70/78/5
f 55/62/5 51/58/5 71/79/5 75/83/5
f 46/52/4 45/51/4 65/72/4 66/73/4
f 60/67/2 50/57/2 70/78/2 80/88/2
f 57/64/1 56/63/1 76/84/1 77/85/1
f 56/63/1 55/62/1 75/83/1 76/84/1
f 127/139/2 42/48/2 62/69/2 128/140/2
f 52/59/2 58/65/2 78/86/2 72/80/2
f 125/137/2 7/8/2 42/48/2 127/139/2
f 14/20/4 23/29/4 49/56/4 45/51/4
f 13/19/4 14/20/4 45/51/4 46/52/4
f 29/35/5 21/27/5 51/58/5 55/62/5
f 17/23/2 33/39/2 58/65/2 52/59/2
f 23/29/4 31/37/4 53/60/4 49/56/4
f 37/43/1 25/31/1 56/63/1 57/64/1
f 16/22/2 5/5/2 44/50/2 47/54/2
f 11/14/5 16/22/5 47/54/5 48/55/5
f 31/37/1 27/33/1 54/61/1 53/60/1
f 1/1/4 17/23/4 52/59/4 43/49/4
f 63/70/4 72/80/4 102/112/4 94/103/4
f 62/69/2 66/74/2 96/106/2 90/99/2
f 65/72/4 69/77/4 99/109/4 95/104/4
f 69/77/4 73/81/4 103/113/4 99/109/4
f 68/76/5 67/75/5 97/107/5 98/108/5
f 74/82/1 79/87/1 109/119/1 104/114/1
f 70/78/5 61/68/5 89/98/5 100/110/5
f 75/83/5 71/79/5 101/111/5 105/115/5
f 66/73/4 65/72/4 95/104/4 96/105/4
f 48/55/5 47/54/5 67/75/5 68/76/5
f 49/56/4 53/60/4 73/81/4 69/77/4
f 45/51/4 49/56/4 69/77/4 65/72/4
f 42/48/2 46/53/2 66/74/2 62/69/2
f 43/49/4 52/59/4 72/80/4 63/70/4
f 60/67/2 80/88/2 78/86/2 58/65/2
f 51/58/5 48/55/5 68/76/5 71/79/5
f 59/66/3 60/67/3 58/65/3 57/64/3
f 117/128/1 43/49/1 63/70/1 118/129/1
f 53/60/1 54/61/1 74/82/1 73/81/1
f 47/54/2 44/50/2 64/71/2 67/75/2
f 123/135/1 85/94/1 87/96/1 124/136/1
f 80/88/2 70/78/2 100/110/2 110/120/2
f 111/121/2 83/92/2 86/95/2 113/123/2
f 113/123/2 86/95/2 88/97/2 114/124/2
f 122/134/1 82/91/1 85/94/1 123/135/1
f 112/122/1 116/127/1 82/91/1 84/93/1
f 115/125/3 112/122/3 84/93/3 81/90/3
f 121/132/2 125/137/2 83/92/2 81/89/2
f 100/110/5 89/98/5 131/143/5 142/155/5
f 105/115/5 101/111/5 143/156/5 147/160/5
f 96/105/4 95/104/4 137/149/4 138/150/4
f 110/120/2 100/110/2 142/155/2 152/165/2
f 107/117/1 106/116/1 148/161/1 149/162/1
f 106/116/1 105/115/1 147/160/1 148/161/1
f 93/102/2 119/130/2 134/146/2 135/147/2
f 102/112/2 108/118/2 150/163/2 144/157/2
f 97/107/2 93/102/2 135/147/2 139/152/2
f 103/113/1 104/114/1 146/159/1 145/158/1
f 78/86/4 77/85/4 107/117/4 108/118/4
f 71/79/5 68/76/5 98/108/5 101/111/5
f 79/87/5 80/88/5 110/120/5 109/119/5
f 73/81/1 74/82/1 104/114/1 103/113/1
f 118/129/1 63/70/1 94/103/1 120/131/1
f 67/75/2 64/71/2 93/102/2 97/107/2
f 72/80/2 78/86/2 108/118/2 102/112/2
f 76/84/1 75/83/1 105/115/1 106/116/1
f 128/140/2 62/69/2 90/99/2 130/142/2
f 77/85/1 76/84/1 106/116/1 107/117/1
f 64/71/2 114/124/2 119/130/2 93/102/2
f 120/131/1 94/103/1 136/148/1 153/166/1
f 6/7/3 2/2/3 112/122/3 115/125/3
f 2/2/1 1/1/1 116/127/1 112/122/1
f 44/50/2 113/123/2 114/124/2 64/71/2
f 5/5/2 111/121/2 113/123/2 44/50/2
f 85/94/1 117/128/1 118/129/1 87/96/1
f 82/91/1 116/127/1 117/128/1 85/94/1
f 81/89/2 83/92/2 111/121/2 115/126/2
f 61/68/1 124/136/1 129/141/1 89/98/1
f 89/98/1 129/141/1 133/145/1 131/143/1
f 8/10/2 7/8/2 125/137/2 121/132/2
f 3/3/1 122/134/1 123/135/1 41/47/1
f 41/47/1 123/135/1 124/136/1 61/68/1
f 83/92/2 125/137/2 127/139/2 86/95/2
f 86/95/2 127/139/2 128/140/2 88/97/2
f 84/93/1 82/91/1 122/134/1 126/138/1
f 81/90/3 84/93/3 126/138/3 121/133/3
f 156/169/2 155/168/2 185/205/2 186/207/2
f 135/147/2 134/146/2 164/179/2 165/181/2
f 143/156/5 140/153/5 170/189/5 173/192/5
f 180/199/6 174/193/6 166/182/6 183/202/6
f 187/208/7 180/199/7 183/202/7 184/203/7
f 182/201/8 187/208/8 184/203/8 163/177/8
f 136/148/4 144/157/4 174/193/4 166/182/4
f 146/159/1 151/164/1 181/200/1 176/195/1
f 137/149/4 141/154/4 171/190/4 167/183/4
f 172/191/9 182/201/9 163/177/9 161/174/9
f 104/114/1 109/119/1 151/164/1 146/159/1
f 98/108/5 97/107/5 139/152/5 140/153/5
f 99/109/4 103/113/4 145/158/4 141/154/4
f 129/141/1 91/100/1 154/167/1 133/145/1
f 95/104/4 99/109/4 141/154/4 137/149/4
f 91/100/1 120/131/1 153/166/1 154/167/1
f 90/99/2 96/106/2 138/151/2 132/144/2
f 130/142/2 90/99/2 132/144/2 155/168/2
f 94/103/4 102/112/4 144/157/4 136/148/4
f 92/101/2 130/142/2 155/168/2 156/169/2
f 158/171/1 159/172/1 107/117/1 149/162/1
f 119/130/2 92/101/2 156/169/2 134/146/2
f 101/111/5 98/108/5 140/153/5 143/156/5
f 151/164/1 158/171/1 188/209/1 181/200/1
f 80/88/10 79/87/10 77/85/10 78/86/10
f 79/87/1 59/66/1 57/64/1 77/85/1
f 159/172/3 160/173/3 108/118/3 107/117/3
f 160/173/2 157/170/2 150/163/2 108/118/2
f 124/136/10 87/96/10 88/97/10 128/140/10
f 114/124/10 88/97/10 87/96/10 118/129/10
f 118/129/4 120/131/4 119/130/4 114/124/4
f 92/101/3 119/130/3 120/131/3 91/100/3
f 129/141/5 124/136/5 128/140/5 130/142/5
f 91/100/3 129/141/3 130/142/3 92/101/3
f 142/155/5 131/143/5 161/174/5 172/191/5
f 110/120/2 152/165/2 157/170/2 160/173/2
f 109/119/3 110/120/3 160/173/3 159/172/3
f 149/162/1 148/161/1 178/197/1 179/198/1
f 151/164/1 109/119/1 159/172/1 158/171/1
f 152/165/11 142/155/11 131/143/11 133/145/11
f 163/177/9 185/204/9 162/175/9 161/174/9
f 161/174/12 162/175/12 168/184/12 167/183/12
f 165/180/13 166/182/13 170/189/13 169/187/13
f 173/192/13 174/193/13 178/197/13 177/196/13
f 170/189/13 166/182/13 174/193/13 173/192/13
f 161/174/12 167/183/12 171/190/12 172/191/12
f 172/191/12 171/190/12 175/194/12 176/195/12
f 178/197/6 174/193/6 180/199/6 179/198/6
f 172/191/9 176/195/9 181/200/9 182/201/9
f 166/182/6 165/180/6 164/178/6 183/202/6
f 187/208/7 188/209/7 179/198/7 180/199/7
f 184/203/8 186/206/8 185/204/8 163/177/8
f 182/201/8 181/200/8 188/209/8 187/208/8
f 183/202/7 164/178/7 186/206/7 184/203/7
f 158/171/1 149/162/1 179/198/1 188/209/1
f 145/158/1 146/159/1 176/195/1 175/194/1
f 134/146/2 156/169/2 186/207/2 164/179/2
f 148/161/1 147/160/1 177/196/1 178/197/1
f 138/150/4 137/149/4 167/183/4 168/185/4
f 157/170/14 152/165/14 133/145/14 154/167/14
f 140/153/5 139/152/5 169/188/5 170/189/5
f 147/160/5 143/156/5 173/192/5 177/196/5
f 132/144/2 138/151/2 168/186/2 162/176/2
f 150/163/15 157/170/15 154/167/15 153/166/15
f 141/154/4 145/158/4 175/194/4 171/190/4
f 155/168/2 132/144/2 162/176/2 185/205/2
f 139/152/2 135/147/2 165/181/2 169/188/2
f 144/157/16 150/163/16 153/166/16 136/148/16
