# Blender 3.3.12
# www.blender.org
mtllib Laptop 2.mtl
o Cube.002
v 0.309020 0.050000 -3.706247
v 0.500000 -0.050000 -4.327814
v 0.309020 0.050000 -3.349380
v 0.500000 -0.050000 -2.727813
v -0.423928 0.050000 -4.220762
v -0.500000 -0.050000 -4.327814
v -0.423928 0.050000 -2.834865
v -0.500000 -0.050000 -2.727813
v 0.451451 0.050000 -3.345356
v -0.500000 0.050000 -2.727813
v 0.451451 0.050000 -3.710271
v -0.500000 0.050000 -4.327814
v 0.260472 0.058302 -2.834865
v -0.423928 0.058302 -2.834865
v 0.260472 0.058302 -4.220762
v -0.423928 0.058302 -4.220762
v 0.500000 0.050000 -4.327814
v 0.500000 0.050000 -2.727813
v 0.260472 0.050000 -4.220762
v 0.260472 0.050000 -2.834865
v 0.451451 0.060925 -3.710271
v 0.451451 0.060925 -3.345356
v 0.309020 0.060925 -3.706247
v 0.309020 0.060925 -3.349380
vn -0.0000 -0.0000 -1.0000
vn -0.0000 -0.0000 1.0000
vn -1.0000 -0.0000 -0.0000
vn -0.0000 -1.0000 -0.0000
vn 1.0000 -0.0000 -0.0000
vn -0.0000 1.0000 -0.0000
vn -0.0282 -0.0000 0.9996
vn -0.0282 -0.0000 -0.9996
vt 0.638337 0.525938
vt 0.375000 0.500000
vt 0.638337 0.724062
vt 0.375000 0.750000
vt 0.858273 0.516727
vt 0.125000 0.500000
vt 0.375000 0.250000
vt 0.858273 0.733273
vt 0.375000 1.000000
vt 0.375000 0.000000
vt 0.125000 0.750000
vt 0.628390 0.734008
vt 0.625000 1.000000
vt 0.625000 0.000000
vt 0.875000 0.750000
vt 0.628390 0.515992
vt 0.625000 0.250000
vt 0.875000 0.500000
vt 0.641727 0.733273
vt 0.858273 0.733273
vt 0.641727 0.516727
vt 0.858273 0.516727
vt 0.625000 0.500000
vt 0.625000 0.750000
vt 0.641727 0.516727
vt 0.641727 0.733273
vt 0.628390 0.515992
vt 0.628390 0.734008
vt 0.638337 0.525938
vt 0.638337 0.724062
s 0
usemtl Material
f 19/25/1 5/5/1 16/22/1 15/21/1
f 4/4/2 18/24/2 10/13/2 8/9/2
f 8/10/3 10/14/3 12/17/3 6/7/3
f 6/6/4 2/2/4 4/4/4 8/11/4
f 2/2/5 17/23/5 18/24/5 4/4/5
f 6/7/1 12/17/1 17/23/1 2/2/1
f 20/26/6 7/8/6 10/15/6 18/24/6
f 1/1/3 3/3/3 24/30/3 23/29/3
f 7/8/6 5/5/6 12/18/6 10/15/6
f 5/5/6 19/25/6 17/23/6 12/18/6
f 15/21/6 16/22/6 14/20/6 13/19/6
f 20/26/5 19/25/5 15/21/5 13/19/5
f 5/5/3 7/8/3 14/20/3 16/22/3
f 7/8/2 20/26/2 13/19/2 14/20/2
f 11/16/6 9/12/6 18/24/6 17/23/6
f 3/3/6 1/1/6 19/25/6 20/26/6
f 9/12/6 3/3/6 20/26/6 18/24/6
f 1/1/6 11/16/6 17/23/6 19/25/6
f 23/29/6 24/30/6 22/28/6 21/27/6
f 3/3/7 9/12/7 22/28/7 24/30/7
f 9/12/5 11/16/5 21/27/5 22/28/5
f 11/16/8 1/1/8 23/29/8 21/27/8
o Cube.003
v -0.897920 0.885196 -4.304777
v -0.792481 0.909802 -4.305289
v -0.897920 0.885196 -2.750850
v -0.792481 0.909802 -2.750338
v -0.599190 -0.026314 -4.304777
v -0.514576 0.061833 -4.305289
v -0.599190 -0.026314 -2.750850
v -0.514576 0.061833 -2.750338
v -0.497812 -0.014550 -4.337813
v -0.497812 -0.014550 -2.717813
v -0.809244 0.935718 -4.337813
v -0.809244 0.935718 -2.717813
v -0.540893 0.053208 -4.305289
v -0.540893 0.053208 -2.750338
v -0.818798 0.901177 -4.305289
v -0.818798 0.901177 -2.750338
vn -0.9503 -0.3114 -0.0000
vn -0.2981 -0.0977 0.9495
vn 0.1153 -0.9933 -0.0000
vn 0.3114 -0.9503 -0.0000
vn -0.4950 0.8689 -0.0000
vn -0.2981 -0.0977 -0.9495
vn 0.9768 0.2144 -0.0000
vn 0.9237 0.3027 -0.2349
vn 0.9237 0.3027 0.2349
vn 0.8397 0.5431 -0.0000
vn 0.9503 0.3114 -0.0000
vn -0.0000 -0.0000 1.0000
vn -0.0000 -0.0000 -1.0000
vn -0.3114 0.9503 -0.0000
vt 0.625000 0.500000
vt 0.361543 0.513457
vt 0.625000 0.750000
vt 0.361543 0.736543
vt 0.875000 0.500000
vt 0.625000 0.250000
vt 0.138457 0.513457
vt 0.875000 0.750000
vt 0.625000 1.000000
vt 0.625000 0.000000
vt 0.138457 0.736543
vt 0.375000 0.250000
vt 0.125000 0.500000
vt 0.375000 1.000000
vt 0.375000 0.000000
vt 0.125000 0.750000
vt 0.375000 0.500000
vt 0.375000 0.750000
vt 0.138457 0.513457
vt 0.138457 0.736543
vt 0.361543 0.513457
vt 0.361543 0.736543
s 0
usemtl Material.001
f 25/31/9 29/35/9 31/38/9 27/33/9
f 36/48/10 27/33/10 31/39/10 34/44/10
f 34/45/11 31/40/11 29/36/11 33/42/11
f 26/32/12 28/34/12 40/52/12 39/51/12
f 35/47/13 25/31/13 27/33/13 36/48/13
f 33/42/14 29/36/14 25/31/14 35/47/14
f 30/37/15 32/41/15 34/46/15 33/43/15
f 26/32/16 30/37/16 33/43/16 35/47/16
f 32/41/17 28/34/17 36/48/17 34/46/17
f 28/34/18 26/32/18 35/47/18 36/48/18
f 37/49/19 39/51/19 40/52/19 38/50/19
f 30/37/20 26/32/20 39/51/20 37/49/20
f 28/34/21 32/41/21 38/50/21 40/52/21
f 32/41/22 30/37/22 37/49/22 38/50/22
