# This file uses centimeters as units for non-parametric coordinates.

mtllib Laptop.mtl
g default
v 0.309020 0.050000 -0.178433
v 0.500000 -0.050000 -0.800000
v 0.309020 0.050000 0.178433
v 0.500000 -0.050000 0.800000
v -0.423928 0.050000 -0.692948
v -0.500000 -0.050000 -0.800000
v -0.423928 0.050000 0.692948
v -0.500000 -0.050000 0.800000
v 0.451451 0.050000 0.182457
v -0.500000 0.050000 0.800000
v 0.451451 0.050000 -0.182457
v -0.500000 0.050000 -0.800000
v 0.260472 0.058302 0.692948
v -0.423928 0.058302 0.692948
v 0.260472 0.058302 -0.692948
v -0.423928 0.058302 -0.692948
v 0.500000 0.050000 -0.800000
v 0.500000 0.050000 0.800000
v 0.260472 0.050000 -0.692948
v 0.260472 0.050000 0.692948
v 0.451451 0.060925 -0.182457
v 0.451451 0.060925 0.182457
v 0.309020 0.060925 -0.178433
v 0.309020 0.060925 0.178433
v -0.897920 0.885196 -0.776963
v -0.792481 0.909802 -0.777475
v -0.897920 0.885196 0.776963
v -0.792481 0.909802 0.777475
v -0.599190 -0.026314 -0.776963
v -0.514576 0.061833 -0.777475
v -0.599190 -0.026314 0.776963
v -0.514576 0.061833 0.777475
v -0.497812 -0.014550 -0.810000
v -0.497812 -0.014550 0.810000
v -0.809244 0.935718 -0.810000
v -0.809244 0.935718 0.810000
v -0.540893 0.053208 -0.777475
v -0.540893 0.053208 0.777475
v -0.818798 0.901177 -0.777475
v -0.818798 0.901177 0.777475
vt 0.314558 0.001992
vt 0.340150 0.001992
vt 0.340150 0.411463
vt 0.314558 0.411463
vt 0.610510 0.001992
vt 0.636102 0.001992
vt 0.636102 0.411463
vt 0.610510 0.411463
vt 0.349484 0.870118
vt 0.349484 0.778789
vt 0.352280 0.778789
vt 0.352280 0.870118
vt 0.283857 0.775024
vt 0.283857 0.420346
vt 0.285981 0.420346
vt 0.285981 0.775024
vt 0.275945 0.775024
vt 0.275945 0.420346
vt 0.278070 0.420346
vt 0.278070 0.775024
vt 0.340293 0.872178
vt 0.340293 0.778789
vt 0.343089 0.778789
vt 0.343089 0.872178
vt 0.705979 0.812908
vt 0.472706 0.812908
vt 0.472706 0.415228
vt 0.705979 0.415228
vt 0.084110 0.010316
vt 0.084110 0.408258
vt 0.064562 0.416582
vt 0.064562 0.001992
vt 0.301122 0.408258
vt 0.307754 0.416582
vt 0.301122 0.010316
vt 0.307754 0.001992
vt 0.724288 0.415228
vt 0.941299 0.415228
vt 0.941299 0.813170
vt 0.724288 0.813170
vt 0.347646 0.001992
vt 0.603566 0.001992
vt 0.603566 0.411463
vt 0.347646 0.411463
vt 0.838217 0.029389
vt 0.663066 0.029389
vt 0.643598 0.001992
vt 0.899517 0.001992
vt 0.663066 0.384067
vt 0.643598 0.411463
vt 0.887093 0.160033
vt 0.850642 0.161063
vt 0.838217 0.384067
vt 0.899517 0.411463
vt 0.850642 0.252392
vt 0.887093 0.253422
vt 0.466919 0.775024
vt 0.291768 0.775024
vt 0.291768 0.420346
vt 0.466919 0.420346
vt 0.298014 0.871148
vt 0.298014 0.779819
vt 0.334465 0.778789
vt 0.334465 0.872178
vt 0.027823 0.416582
vt 0.001879 0.408127
vt 0.001879 0.010447
vt 0.027823 0.001992
vt 0.913197 0.001992
vt 0.913197 0.399934
vt 0.906462 0.399934
vt 0.906462 0.001992
vt 0.057844 0.416582
vt 0.035150 0.408127
vt 0.035150 0.010447
vt 0.057844 0.001992
vt 0.718501 0.415228
vt 0.718501 0.813170
vt 0.711766 0.813170
vt 0.711766 0.415228
vt 0.281757 0.778789
vt 0.281757 0.953940
vt 0.279632 0.953940
vt 0.279632 0.778789
vt 0.244567 0.420346
vt 0.270159 0.420346
vt 0.270159 0.676266
vt 0.244567 0.676266
vt 0.238780 0.676266
vt 0.213188 0.676266
vt 0.213188 0.420346
vt 0.238780 0.420346
vt 0.288823 0.953940
vt 0.288823 0.778789
vt 0.290948 0.778789
vt 0.290948 0.953940
vt 0.358675 0.815240
vt 0.358675 0.778789
vt 0.361471 0.778789
vt 0.361471 0.815240
vt 0.370662 0.778789
vt 0.370662 0.815240
vt 0.367866 0.815240
vt 0.367866 0.778789
vt 0.127700 0.666549
vt 0.105006 0.653620
vt 0.181457 0.420346
vt 0.207401 0.423357
vt 0.104274 0.913506
vt 0.078330 0.916517
vt 0.001879 0.683244
vt 0.024573 0.670314
vt 0.188373 0.672521
vt 0.117252 0.889533
vt 0.110517 0.887326
vt 0.181638 0.670314
vt 0.201810 0.778789
vt 0.272931 0.995801
vt 0.266196 0.998008
vt 0.195075 0.780996
vn 0.000000 0.000000 -1.000000
vn 0.000000 0.000000 -1.000000
vn 0.000000 0.000000 -1.000000
vn 0.000000 0.000000 -1.000000
vn 0.000000 0.000000 1.000000
vn 0.000000 0.000000 1.000000
vn 0.000000 0.000000 1.000000
vn 0.000000 0.000000 1.000000
vn -1.000000 0.000000 0.000000
vn -1.000000 0.000000 0.000000
vn -1.000000 0.000000 0.000000
vn -1.000000 0.000000 0.000000
vn 0.000000 -1.000000 0.000000
vn 0.000000 -1.000000 0.000000
vn 0.000000 -1.000000 0.000000
vn 0.000000 -1.000000 0.000000
vn 1.000000 0.000000 0.000000
vn 1.000000 0.000000 0.000000
vn 1.000000 0.000000 0.000000
vn 1.000000 0.000000 0.000000
vn 0.000000 0.000000 -1.000000
vn 0.000000 0.000000 -1.000000
vn 0.000000 0.000000 -1.000000
vn 0.000000 0.000000 -1.000000
vn -0.000000 1.000000 -0.000000
vn -0.000000 1.000000 -0.000000
vn -0.000000 1.000000 -0.000000
vn -0.000000 1.000000 -0.000000
vn -1.000000 0.000000 0.000000
vn -1.000000 0.000000 0.000000
vn -1.000000 0.000000 0.000000
vn -1.000000 0.000000 0.000000
vn -0.000000 1.000000 -0.000000
vn -0.000000 1.000000 -0.000000
vn -0.000000 1.000000 -0.000000
vn -0.000000 1.000000 -0.000000
vn -0.000000 1.000000 -0.000000
vn -0.000000 1.000000 -0.000000
vn -0.000000 1.000000 -0.000000
vn -0.000000 1.000000 -0.000000
vn -0.000000 1.000000 -0.000000
vn -0.000000 1.000000 -0.000000
vn -0.000000 1.000000 -0.000000
vn -0.000000 1.000000 -0.000000
vn 1.000000 0.000000 0.000000
vn 1.000000 0.000000 0.000000
vn 1.000000 0.000000 0.000000
vn 1.000000 0.000000 0.000000
vn -1.000000 0.000000 0.000000
vn -1.000000 0.000000 0.000000
vn -1.000000 0.000000 0.000000
vn -1.000000 0.000000 0.000000
vn 0.000000 0.000000 1.000000
vn 0.000000 0.000000 1.000000
vn 0.000000 0.000000 1.000000
vn 0.000000 0.000000 1.000000
vn -0.000000 1.000000 -0.000000
vn -0.000000 1.000000 -0.000000
vn -0.000000 1.000000 -0.000000
vn -0.000000 1.000000 -0.000000
vn -0.000000 1.000000 -0.000000
vn -0.000000 1.000000 -0.000000
vn -0.000000 1.000000 -0.000000
vn -0.000000 1.000000 -0.000000
vn -0.000000 1.000000 -0.000000
vn -0.000000 1.000000 -0.000000
vn -0.000000 1.000000 -0.000000
vn -0.000000 1.000000 -0.000000
vn -0.000000 1.000000 -0.000000
vn -0.000000 1.000000 -0.000000
vn -0.000000 1.000000 -0.000000
vn -0.000000 1.000000 -0.000000
vn -0.000000 1.000000 -0.000000
vn -0.000000 1.000000 -0.000000
vn -0.000000 1.000000 -0.000000
vn -0.000000 1.000000 -0.000000
vn -0.028200 0.000000 0.999602
vn -0.028200 0.000000 0.999602
vn -0.028200 0.000000 0.999602
vn -0.028200 0.000000 0.999602
vn 1.000000 0.000000 0.000000
vn 1.000000 0.000000 0.000000
vn 1.000000 0.000000 0.000000
vn 1.000000 0.000000 0.000000
vn -0.028200 0.000000 -0.999602
vn -0.028200 0.000000 -0.999602
vn -0.028200 0.000000 -0.999602
vn -0.028200 0.000000 -0.999602
vn -0.950281 -0.311394 0.000000
vn -0.950281 -0.311394 0.000000
vn -0.950281 -0.311394 0.000000
vn -0.950281 -0.311394 0.000000
vn -0.298106 -0.097702 0.949519
vn -0.298106 -0.097702 0.949519
vn -0.298106 -0.097702 0.949519
vn -0.298106 -0.097702 0.949519
vn 0.115304 -0.993330 0.000000
vn 0.115304 -0.993330 0.000000
vn 0.115304 -0.993330 0.000000
vn 0.115304 -0.993330 0.000000
vn 0.311394 -0.950281 0.000000
vn 0.311394 -0.950281 0.000000
vn 0.311394 -0.950281 0.000000
vn 0.311394 -0.950281 0.000000
vn -0.494997 0.868895 -0.000000
vn -0.494997 0.868895 -0.000000
vn -0.494997 0.868895 -0.000000
vn -0.494997 0.868895 -0.000000
vn -0.298106 -0.097702 -0.949519
vn -0.298106 -0.097702 -0.949519
vn -0.298106 -0.097702 -0.949519
vn -0.298106 -0.097702 -0.949519
vn 0.976748 0.214389 0.000000
vn 0.976748 0.214389 0.000000
vn 0.976748 0.214389 0.000000
vn 0.976748 0.214389 0.000000
vn 0.923688 0.302696 -0.234897
vn 0.923688 0.302696 -0.234897
vn 0.923688 0.302696 -0.234897
vn 0.923688 0.302696 -0.234897
vn 0.923688 0.302696 0.234897
vn 0.923688 0.302696 0.234897
vn 0.923688 0.302696 0.234897
vn 0.923688 0.302696 0.234897
vn 0.839677 0.543085 0.000000
vn 0.839677 0.543085 0.000000
vn 0.839677 0.543085 0.000000
vn 0.839677 0.543085 0.000000
vn 0.950281 0.311394 0.000000
vn 0.950281 0.311394 0.000000
vn 0.950281 0.311394 0.000000
vn 0.950281 0.311394 0.000000
vn 0.000000 0.000000 1.000000
vn 0.000000 0.000000 1.000000
vn 0.000000 0.000000 1.000000
vn 0.000000 0.000000 1.000000
vn 0.000000 0.000000 -1.000000
vn 0.000000 0.000000 -1.000000
vn 0.000000 0.000000 -1.000000
vn 0.000000 0.000000 -1.000000
vn -0.311394 0.950281 -0.000000
vn -0.311394 0.950281 -0.000000
vn -0.311394 0.950281 -0.000000
vn -0.311394 0.950281 -0.000000
s off
g Laptop1:Mesh
usemtl initialShadingGroup
f 19/81/1 5/82/2 16/83/3 15/84/4
f 4/85/5 18/86/6 10/87/7 8/88/8
f 8/1/9 10/2/10 12/3/11 6/4/12
f 6/41/13 2/42/14 4/43/15 8/44/16
f 2/5/17 17/6/18 18/7/19 4/8/20
f 6/89/21 12/90/22 17/91/23 2/92/24
f 20/45/25 7/46/26 10/47/27 18/48/28
f 1/9/29 3/10/30 24/11/31 23/12/32
f 7/46/33 5/49/34 12/50/35 10/47/36
f 5/49/37 19/53/38 17/54/39 12/50/40
f 15/57/41 16/58/42 14/59/43 13/60/44
f 20/13/45 19/14/46 15/15/47 13/16/48
f 5/17/49 7/18/50 14/19/51 16/20/52
f 7/93/53 20/94/54 13/95/55 14/96/56
f 11/56/57 9/51/58 18/48/59 17/54/60
f 3/52/61 1/55/62 19/53/63 20/45/64
f 9/51/65 3/52/66 20/45/67 18/48/68
f 1/55/69 11/56/70 17/54/71 19/53/72
f 23/61/73 24/62/74 22/63/75 21/64/76
f 3/97/77 9/98/78 22/99/79 24/100/80
f 9/21/81 11/22/82 21/23/83 22/24/84
f 11/101/85 1/102/86 23/103/87 21/104/88
f 25/25/89 29/26/90 31/27/91 27/28/92
f 36/105/93 27/106/94 31/107/95 34/108/96
f 34/65/97 31/66/98 29/67/99 33/68/100
f 26/69/101 28/70/102 40/71/103 39/72/104
f 35/73/105 25/74/106 27/75/107 36/76/108
f 33/109/109 29/110/110 25/111/111 35/112/112
f 30/29/113 32/30/114 34/31/115 33/32/116
f 26/35/117 30/29/118 33/32/119 35/36/120
f 32/30/121 28/33/122 36/34/123 34/31/124
f 28/33/125 26/35/126 35/36/127 36/34/128
f 37/37/129 39/38/130 40/39/131 38/40/132
f 30/113/133 26/114/134 39/115/135 37/116/136
f 28/117/137 32/118/138 38/119/139 40/120/140
f 32/77/141 30/78/142 37/79/143 38/80/144
