# This file uses centimeters as units for non-parametric coordinates.

mtllib Axe.mtl
g default
v -0.007357 -0.964434 5.992642
v -0.020495 -0.919871 5.979505
v -0.000000 -0.964434 5.989595
v 0.000000 -0.919871 5.971016
v 0.007357 -0.964434 5.992642
v 0.020495 -0.919871 5.979505
v 0.000000 -0.964434 6.010405
v 0.000000 -0.919871 6.028984
v -0.007357 -0.964434 6.007358
v 0.007357 -0.964434 6.007358
v 0.020495 -0.919871 6.020495
v -0.020495 -0.919871 6.020495
v 0.500000 0.241528 6.036552
v 0.500000 0.241528 5.963448
v 0.750000 0.125759 6.000000
v 0.750000 0.350000 5.963448
v 0.500000 0.350000 5.963448
v -0.007357 0.964434 5.992642
v 0.000000 0.919871 5.971016
v -0.020495 0.919871 5.979505
v -0.000000 0.964434 5.989595
v 0.020495 0.919871 5.979505
v 0.750000 0.350000 6.036552
v 0.500000 0.350000 6.036552
v 0.007357 0.964434 5.992642
v 0.000000 0.964434 6.010405
v -0.020495 0.919871 6.020495
v 0.000000 0.919871 6.028984
v -0.007357 0.964434 6.007358
v 0.007357 0.964434 6.007358
v 0.020495 0.919871 6.020495
v 1.000000 0.236561 6.000000
v 1.038778 0.600000 6.000000
v 0.750000 0.600000 5.963448
v 0.750000 0.600000 6.036552
v 0.500000 0.850000 5.963448
v 0.500000 0.958472 5.963448
v 0.750000 0.850000 5.963448
v 0.750000 0.850000 6.036552
v 0.500000 0.958472 6.036552
v 0.500000 0.850000 6.036552
v 0.750000 1.074241 6.000000
v 1.000000 0.963439 6.000000
v -0.010405 -0.964434 6.000000
v -0.028984 -0.919871 6.000000
v -0.064496 -0.834927 6.000000
v -0.045605 -0.834927 5.954395
v 0.000000 -0.834927 5.935504
v 0.028984 -0.919871 6.000000
v 0.010405 -0.964434 6.000000
v -0.045605 -0.834927 6.045605
v 0.045605 -0.834927 5.954395
v 0.000000 -0.834927 6.064496
v 0.064496 -0.834927 6.000000
v -0.070711 -0.631943 5.929289
v -0.100000 -0.631943 6.000000
v -0.000000 -0.631943 5.900000
v 0.045605 -0.834927 6.045605
v -0.070711 -0.631943 6.070711
v 0.070711 -0.631943 5.929289
v -0.000000 -0.631943 6.100000
v 0.100000 -0.631943 6.000000
v 0.070711 -0.631943 6.070711
v -0.100000 0.631943 6.000000
v -0.070711 0.631943 5.929289
v -0.000000 0.631943 5.900000
v -0.070711 0.631943 6.070711
v 0.070711 0.631943 5.929289
v -0.000000 0.631943 6.100000
v 0.070711 0.631943 6.070711
v 0.084860 0.403870 5.963448
v 0.250000 0.350000 5.963448
v 0.250000 0.303716 5.963448
v 0.084860 0.328123 5.963448
v 0.084860 0.328123 6.036552
v 0.250000 0.303716 6.036552
v 0.250000 0.350000 6.036552
v 0.084860 0.403870 6.036552
v 0.084860 0.600000 5.963448
v 0.250000 0.600000 5.963448
v -0.045605 0.834927 5.954395
v -0.064496 0.834927 6.000000
v 0.000000 0.834927 5.935504
v -0.045605 0.834927 6.045605
v 0.045605 0.834927 5.954395
v 0.250000 0.600000 6.036552
v 0.084860 0.600000 6.036552
v 0.000000 0.834927 6.064496
v 0.500000 0.600000 5.963448
v -0.028984 0.919871 6.000000
v 0.045605 0.834927 6.045605
v 0.500000 0.600000 6.036552
v -0.010405 0.964434 6.000000
v 0.010405 0.964434 6.000000
v 0.028984 0.919871 6.000000
v 0.250000 0.850000 5.963448
v 0.250000 0.850000 6.036552
v 0.250000 0.896284 5.963448
v 0.250000 0.896284 6.036552
v 0.100000 0.325885 6.000000
v 0.049355 0.834927 5.963448
v 0.057691 0.787268 5.963448
v 0.084860 0.631943 5.963448
v 0.084860 0.631943 6.036552
v 0.057691 0.787268 6.036552
v 0.049355 0.834927 6.036552
v 0.036873 0.864785 5.963448
v 0.036873 0.864785 6.036552
v 0.051132 0.866893 6.000000
vt 0.190114 0.001992
vt 0.190114 0.024059
vt 0.179965 0.024059
vt 0.186471 0.001992
vt 0.193758 0.001992
vt 0.200263 0.024059
vt 0.190114 0.066124
vt 0.167530 0.066124
vt 0.212698 0.066124
vt 0.155098 0.166641
vt 0.190114 0.166641
vt 0.225130 0.166641
vt 0.190114 0.792516
vt 0.155098 0.792516
vt 0.225130 0.792516
vt 0.167530 0.893033
vt 0.190114 0.893033
vt 0.212698 0.893033
vt 0.190114 0.935097
vt 0.179965 0.935097
vt 0.200263 0.935097
vt 0.186471 0.957165
vt 0.190114 0.957165
vt 0.193758 0.957165
vt 0.266641 0.024059
vt 0.266641 0.001992
vt 0.270284 0.001992
vt 0.276790 0.024059
vt 0.256491 0.024059
vt 0.262997 0.001992
vt 0.289224 0.066124
vt 0.266641 0.066124
vt 0.244057 0.066124
vt 0.301656 0.166641
vt 0.266641 0.166641
vt 0.231625 0.166641
vt 0.301656 0.792516
vt 0.284741 0.792516
vt 0.284741 0.776698
vt 0.284741 0.679574
vt 0.284741 0.642064
vt 0.266641 0.640956
vt 0.248540 0.642064
vt 0.248540 0.679574
vt 0.248540 0.776698
vt 0.248540 0.792516
vt 0.231625 0.792516
vt 0.289224 0.893033
vt 0.284741 0.893033
vt 0.284741 0.869432
vt 0.244057 0.893033
vt 0.248540 0.869432
vt 0.248540 0.893033
vt 0.276790 0.935097
vt 0.266641 0.935097
vt 0.266641 0.908862
vt 0.284741 0.907819
vt 0.248540 0.907819
vt 0.256491 0.935097
vt 0.270284 0.957165
vt 0.266641 0.957165
vt 0.262997 0.957165
vt 0.415673 0.625666
vt 0.379472 0.625666
vt 0.397573 0.501866
vt 0.415673 0.749465
vt 0.379472 0.749465
vt 0.379472 0.831242
vt 0.415673 0.831242
vt 0.397573 0.823745
vt 0.457610 0.625665
vt 0.421409 0.625665
vt 0.439510 0.501866
vt 0.457610 0.749465
vt 0.421409 0.749465
vt 0.421409 0.855005
vt 0.457610 0.855005
vt 0.439510 0.847944
vt 0.372227 0.503375
vt 0.373736 0.507018
vt 0.372227 0.510662
vt 0.368584 0.512171
vt 0.364940 0.510662
vt 0.363432 0.507018
vt 0.364940 0.503375
vt 0.368584 0.501866
vt 0.352543 0.501866
vt 0.356187 0.503375
vt 0.357696 0.507018
vt 0.356187 0.510662
vt 0.352543 0.512171
vt 0.348900 0.510662
vt 0.347391 0.507018
vt 0.348900 0.503375
vt 0.036878 0.957165
vt 0.033235 0.957165
vt 0.026729 0.935097
vt 0.036878 0.935097
vt 0.014294 0.893033
vt 0.036878 0.893033
vt 0.040522 0.957165
vt 0.047027 0.935097
vt 0.036878 0.792516
vt 0.001862 0.792516
vt 0.059462 0.893033
vt 0.071894 0.792516
vt 0.001862 0.166641
vt 0.036878 0.166641
vt 0.071894 0.166641
vt 0.036878 0.066124
vt 0.014294 0.066124
vt 0.059462 0.066124
vt 0.026729 0.024060
vt 0.036878 0.024060
vt 0.047027 0.024060
vt 0.033235 0.001992
vt 0.036878 0.001992
vt 0.040522 0.001992
vt 0.109944 0.001992
vt 0.113587 0.001992
vt 0.113587 0.024059
vt 0.103438 0.024059
vt 0.117230 0.001992
vt 0.123736 0.024059
vt 0.113587 0.066124
vt 0.091003 0.066124
vt 0.136171 0.066124
vt 0.078571 0.166641
vt 0.113587 0.166641
vt 0.148603 0.166641
vt 0.113587 0.792516
vt 0.078571 0.792516
vt 0.148603 0.792516
vt 0.091003 0.893033
vt 0.113587 0.893033
vt 0.136171 0.893033
vt 0.113587 0.935097
vt 0.103438 0.935097
vt 0.123736 0.935097
vt 0.113587 0.957165
vt 0.109944 0.957165
vt 0.117230 0.957165
vt 0.720510 0.268794
vt 0.666794 0.268794
vt 0.666794 0.144995
vt 0.777838 0.144995
vt 0.689714 0.392594
vt 0.666794 0.392594
vt 0.542995 0.268794
vt 0.542995 0.144995
vt 0.722969 0.021195
vt 0.640118 0.474371
vt 0.677628 0.474371
vt 0.542995 0.392594
vt 0.419195 0.268794
vt 0.419195 0.144995
vt 0.542995 0.001992
vt 0.542995 0.474371
vt 0.419195 0.392594
vt 0.365480 0.268794
vt 0.308152 0.144995
vt 0.363020 0.021195
vt 0.527176 0.474371
vt 0.450260 0.487825
vt 0.396275 0.392594
vt 0.411873 0.498134
vt 0.426659 0.491953
vt 0.520674 0.768668
vt 0.463346 0.644868
vt 0.574390 0.644868
vt 0.574390 0.768668
vt 0.518215 0.521069
vt 0.698189 0.644868
vt 0.698189 0.768668
vt 0.551470 0.892468
vt 0.574390 0.892468
vt 0.698189 0.501866
vt 0.821989 0.768668
vt 0.821989 0.644868
vt 0.698189 0.892468
vt 0.563556 0.974245
vt 0.601066 0.974245
vt 0.878163 0.521069
vt 0.821989 0.892468
vt 0.875704 0.768668
vt 0.933032 0.644868
vt 0.698189 0.974245
vt 0.844908 0.892468
vt 0.790924 0.987699
vt 0.714007 0.974245
vt 0.829310 0.998008
vt 0.814525 0.991827
vn 0.000000 -0.602642 -0.798011
vn -0.564277 -0.602632 -0.564294
vn -0.652429 -0.385571 -0.652435
vn 0.000000 -0.385569 -0.922679
vn 0.564277 -0.602632 -0.564293
vn 0.652429 -0.385571 -0.652435
vn -0.564276 -0.602631 0.564294
vn 0.000000 -0.602642 0.798011
vn -0.000000 -0.385569 0.922679
vn -0.652429 -0.385571 0.652435
vn 0.564277 -0.602632 0.564293
vn 0.652430 -0.385571 0.652435
vn -0.420207 -0.907428 0.000000
vn -0.420207 -0.907428 0.000000
vn -0.420207 -0.907428 0.000000
vn 0.047328 -0.109081 -0.992906
vn 0.047328 -0.109081 -0.992906
vn 0.047328 -0.109081 -0.992906
vn 0.047328 -0.109081 -0.992906
vn 0.000000 0.385570 -0.922679
vn -0.652432 0.385570 -0.652432
vn -0.564289 0.602625 -0.564288
vn 0.000000 0.602642 -0.798012
vn 0.595224 0.384364 -0.705672
vn 0.564289 0.602625 -0.564288
vn 0.047328 -0.109081 0.992906
vn 0.047328 -0.109081 0.992906
vn 0.047328 -0.109081 0.992906
vn 0.047328 -0.109081 0.992906
vn -0.652432 0.385570 0.652433
vn 0.000000 0.385570 0.922679
vn -0.000000 0.602641 0.798012
vn -0.564289 0.602625 0.564289
vn 0.595226 0.384363 0.705671
vn 0.564289 0.602625 0.564288
vn 0.071125 -0.160472 -0.984474
vn 0.071125 -0.160472 -0.984474
vn 0.071125 -0.160472 -0.984474
vn 0.071127 -0.160472 0.984474
vn 0.071127 -0.160472 0.984474
vn 0.071127 -0.160472 0.984474
vn 0.132714 -0.008389 -0.991119
vn 0.132714 -0.008389 -0.991119
vn 0.132714 -0.008389 -0.991119
vn 0.132714 -0.008389 -0.991119
vn 0.132714 -0.008389 0.991119
vn 0.132714 -0.008389 0.991119
vn 0.132714 -0.008389 0.991119
vn 0.132714 -0.008389 0.991119
vn 0.047327 0.109081 -0.992906
vn 0.047327 0.109081 -0.992906
vn 0.047327 0.109081 -0.992906
vn 0.047327 0.109081 -0.992906
vn 0.132713 0.008389 -0.991119
vn 0.132713 0.008389 -0.991119
vn 0.132713 0.008389 -0.991119
vn 0.132713 0.008389 -0.991119
vn 0.047328 0.109081 0.992906
vn 0.047328 0.109081 0.992906
vn 0.047328 0.109081 0.992906
vn 0.047328 0.109081 0.992906
vn 0.132714 0.008389 0.991119
vn 0.132714 0.008389 0.991119
vn 0.132714 0.008389 0.991119
vn 0.132714 0.008389 0.991119
vn -0.420207 0.907428 0.000000
vn -0.420207 0.907428 0.000000
vn -0.420207 0.907428 0.000000
vn 0.071123 0.160473 -0.984475
vn 0.071123 0.160473 -0.984475
vn 0.071123 0.160473 -0.984475
vn 0.071125 0.160473 0.984474
vn 0.071125 0.160473 0.984474
vn 0.071125 0.160473 0.984474
vn -0.798024 -0.602626 0.000001
vn -0.922680 -0.385566 0.000000
vn -0.905925 -0.196189 -0.375247
vn -0.905925 -0.196189 -0.375247
vn -0.375245 -0.196189 -0.905926
vn -0.375245 -0.196189 -0.905926
vn 0.922680 -0.385567 -0.000000
vn 0.798024 -0.602626 -0.000000
vn -0.905925 -0.196189 0.375247
vn -0.905925 -0.196189 0.375247
vn 0.375245 -0.196189 -0.905926
vn 0.375245 -0.196189 -0.905926
vn -0.375245 -0.196189 0.905926
vn -0.375245 -0.196189 0.905926
vn 0.905925 -0.196189 -0.375247
vn 0.905925 -0.196189 -0.375247
vn -0.923727 -0.018149 -0.382621
vn -0.923727 -0.018149 -0.382621
vn -0.382620 -0.018149 -0.923728
vn -0.382620 -0.018149 -0.923728
vn 0.375245 -0.196189 0.905926
vn 0.375245 -0.196189 0.905926
vn 0.905925 -0.196189 0.375247
vn 0.905925 -0.196189 0.375247
vn -0.923728 -0.018149 0.382619
vn -0.923728 -0.018149 0.382619
vn 0.382620 -0.018149 -0.923728
vn 0.382620 -0.018149 -0.923728
vn -0.382620 -0.018149 0.923728
vn -0.382620 -0.018149 0.923728
vn 0.923687 -0.020408 -0.382604
vn 0.923687 -0.020408 -0.382604
vn 0.382620 -0.018149 0.923728
vn 0.382620 -0.018149 0.923728
vn 0.923688 -0.020408 0.382602
vn 0.923688 -0.020408 0.382602
vn -0.923727 0.018149 -0.382621
vn -0.923727 0.018149 -0.382621
vn -0.382620 0.018149 -0.923728
vn -0.382620 0.018149 -0.923728
vn -0.923728 0.018149 0.382619
vn -0.923728 0.018149 0.382619
vn 0.382620 0.018149 -0.923728
vn 0.382620 0.018149 -0.923728
vn -0.382620 0.018149 0.923728
vn -0.382620 0.018149 0.923728
vn 0.382620 0.018149 0.923728
vn 0.382620 0.018149 0.923728
vn -0.000003 0.000000 -1.000000
vn -0.000002 0.000000 -1.000000
vn 0.000000 0.000000 -1.000000
vn 0.000000 0.000000 -1.000000
vn 0.000000 0.000000 1.000000
vn 0.000000 0.000000 1.000000
vn -0.000002 0.000000 1.000000
vn -0.000003 0.000000 1.000000
vn -0.000002 0.000000 -1.000000
vn -0.000002 0.000000 -1.000000
vn -0.905924 0.196190 -0.375248
vn -0.905924 0.196190 -0.375248
vn -0.375248 0.196189 -0.905924
vn -0.375248 0.196189 -0.905924
vn -0.241398 -0.970426 0.000000
vn -0.241398 -0.970426 0.000000
vn -0.241398 -0.970426 0.000000
vn -0.241398 -0.970426 0.000000
vn -0.000002 0.000000 -1.000000
vn -0.000002 0.000000 -1.000000
vn -0.000002 0.000000 -1.000000
vn -0.000002 0.000000 -1.000000
vn -0.905924 0.196190 0.375248
vn -0.905924 0.196190 0.375248
vn 0.375248 0.196189 -0.905924
vn 0.375248 0.196189 -0.905924
vn -0.000002 0.000000 1.000000
vn -0.000002 0.000000 1.000000
vn -0.000002 0.000000 1.000000
vn -0.000002 0.000000 1.000000
vn -0.000002 0.000000 1.000000
vn -0.000002 0.000000 1.000000
vn -0.375248 0.196189 0.905924
vn -0.375248 0.196189 0.905924
vn 0.000000 0.000000 -1.000000
vn 0.000000 0.000000 -1.000000
vn 0.000000 0.000000 -1.000000
vn 0.000000 0.000000 -1.000000
vn -0.922678 0.385572 0.000000
vn 0.375248 0.196189 0.905924
vn 0.375248 0.196189 0.905924
vn 0.000000 0.000000 1.000000
vn 0.000000 0.000000 1.000000
vn 0.000000 0.000000 1.000000
vn 0.000000 0.000000 1.000000
vn -0.798024 0.602626 0.000001
vn 0.798024 0.602626 -0.000001
vn 0.922708 0.385500 -0.000002
vn 0.000000 0.000000 -1.000000
vn 0.000000 0.000000 -1.000000
vn 0.000000 0.000000 -1.000000
vn 0.000000 0.000000 -1.000000
vn 0.000000 0.000000 -1.000000
vn 0.000000 0.000000 -1.000000
vn 0.000000 0.000000 -1.000000
vn 0.000000 0.000000 -1.000000
vn 0.000000 0.000000 1.000000
vn 0.000000 0.000000 1.000000
vn 0.000000 0.000000 1.000000
vn 0.000000 0.000000 1.000000
vn 0.000000 0.000000 1.000000
vn 0.000000 0.000000 1.000000
vn 0.000000 0.000000 1.000000
vn 0.000000 0.000000 1.000000
vn -0.000002 0.000000 -1.000000
vn -0.000002 0.000000 -1.000000
vn -0.000002 0.000000 -1.000000
vn -0.000002 0.000000 -1.000000
vn -0.000002 0.000000 1.000000
vn -0.000002 0.000000 1.000000
vn -0.000002 0.000000 1.000000
vn -0.000002 0.000000 1.000000
vn -0.241398 0.970426 0.000000
vn -0.241398 0.970426 0.000000
vn -0.241398 0.970426 0.000000
vn -0.241398 0.970426 0.000000
vn 0.000000 0.000000 -1.000000
vn 0.000000 0.000000 -1.000000
vn 0.000000 0.000000 -1.000000
vn 0.000000 0.000000 -1.000000
vn 0.000000 0.000000 1.000000
vn 0.000000 0.000000 1.000000
vn 0.000000 0.000000 1.000000
vn 0.000000 0.000000 1.000000
vn -0.146204 -0.989254 -0.000000
vn -0.146204 -0.989254 -0.000000
vn -0.146204 -0.989254 -0.000000
vn -0.146204 -0.989255 -0.000000
vn -0.146204 -0.989255 -0.000000
vn 0.923848 0.008237 -0.382670
vn 0.902744 0.212669 -0.373931
vn 0.902744 0.212669 -0.373931
vn 0.912047 0.159529 -0.377783
vn 0.923848 0.008237 -0.382670
vn 0.000000 0.000000 -1.000000
vn -0.000000 0.000000 -1.000000
vn -0.000000 0.000000 -1.000000
vn 0.902744 0.212669 0.373931
vn 0.923849 0.008237 0.382669
vn 0.923849 0.008237 0.382669
vn 0.912046 0.159530 0.377785
vn 0.902744 0.212669 0.373931
vn 0.000000 0.000000 1.000000
vn 0.000000 0.000000 1.000000
vn 0.000000 0.000000 1.000000
vn -0.000001 0.000000 -1.000000
vn -0.000001 0.000000 -1.000000
vn -0.000001 0.000000 -1.000000
vn -0.146205 0.989254 -0.000000
vn -0.146205 0.989254 -0.000000
vn -0.146205 0.989254 -0.000000
vn -0.146205 0.989254 -0.000000
vn -0.146205 0.989254 -0.000000
vn 0.000000 0.000000 1.000000
vn 0.000000 0.000000 1.000000
vn 0.000000 0.000000 1.000000
vn 0.861827 0.360299 -0.356986
vn 0.861827 0.360299 -0.356986
vn 0.861831 0.360294 0.356981
vn 0.861831 0.360294 0.356981
vn 0.923880 0.000000 -0.382683
vn 0.923880 0.000000 -0.382683
vn 0.923880 0.000000 -0.382683
vn 0.923880 0.000000 -0.382683
vn 0.923880 -0.000000 0.382681
vn 0.923880 -0.000000 0.382681
vn 0.923881 -0.000000 0.382681
vn 0.923881 -0.000000 0.382681
s 1
g polySurface2
usemtl initialShadingGroup
f 3/95/1 1/96/2 2/97/3 4/98/4
f 5/101/5 3/95/1 4/98/4 6/102/6
f 9/119/7 7/120/8 8/121/9 12/122/10
f 7/120/8 10/123/11 11/124/12 8/121/9
s off
f 13/63/13 14/64/14 15/65/15
f 14/143/16 17/144/17 16/145/18 15/146/19
s 1
f 19/114/20 20/113/21 18/116/22 21/117/23
f 22/115/24 19/114/20 21/117/23 25/118/25
s off
f 13/168/26 15/169/27 23/170/28 24/171/29
s 1
f 27/138/30 28/137/31 26/140/32 29/141/33
f 28/137/31 31/139/34 30/142/35 26/140/32
s off
f 32/151/36 15/146/37 16/145/38
f 15/169/39 32/172/40 23/170/41
f 33/157/42 32/151/43 16/145/44 34/150/45
f 23/170/46 32/172/47 33/177/48 35/173/49
f 38/156/50 36/155/51 37/160/52 42/161/53
f 33/157/54 34/150/55 38/156/56 43/162/57
f 40/185/58 41/178/59 39/179/60 42/186/61
f 39/179/62 35/173/63 33/177/64 43/183/65
f 37/71/66 40/72/67 42/73/68
f 42/161/69 43/162/70 38/156/71
f 43/183/72 42/186/73 39/179/74
s 1
f 44/1/75 45/2/76 2/3/3 1/4/2
f 9/5/7 12/6/10 45/2/76 44/1/75
f 46/7/77 47/8/78 2/3/3 45/2/76
f 47/99/79 48/100/80 4/98/4 2/97/3
f 49/25/81 50/26/82 5/27/5 6/28/6
f 11/29/12 10/30/11 50/26/82 49/25/81
f 51/9/83 46/7/84 45/2/76 12/6/10
f 48/100/85 52/105/86 6/102/6 4/98/4
f 53/125/87 51/126/88 12/122/10 8/121/9
f 52/31/89 54/32/90 49/25/81 6/28/6
f 55/10/91 47/8/78 46/7/77 56/11/92
f 57/103/93 48/100/80 47/99/79 55/104/94
f 58/127/95 53/125/96 8/121/9 11/124/12
f 54/32/97 58/33/98 11/29/12 49/25/81
f 56/11/99 46/7/84 51/9/83 59/12/100
f 60/106/101 52/105/86 48/100/85 57/103/102
f 59/128/103 51/126/88 53/125/87 61/129/104
f 52/31/89 60/34/105 62/35/106 54/32/90
f 61/129/107 53/125/96 58/127/95 63/130/108
f 63/36/109 58/33/98 54/32/97 62/35/110
f 55/10/91 56/11/92 64/13/111 65/14/112
f 57/103/93 55/104/94 65/107/113 66/108/114
f 56/11/99 59/12/100 67/15/115 64/13/116
f 60/106/101 57/103/102 66/108/117 68/109/118
f 59/128/103 61/129/104 69/131/119 67/132/120
f 61/129/107 63/130/108 70/133/121 69/131/122
s 4
f 71/152/123 72/148/124 73/147/125 74/153/126
s 5
f 75/181/127 76/175/128 77/176/129 78/182/130
s 4
f 79/158/131 80/154/132 72/148/124 71/152/123
s 1
f 81/16/133 65/14/112 64/13/111 82/17/134
f 83/110/135 66/108/114 65/107/113 81/111/136
s off
f 76/66/137 73/67/138 14/64/139 13/63/140
f 17/144/141 14/143/142 73/147/143 72/148/144
s 1
f 82/17/145 64/13/116 67/15/115 84/18/146
f 85/112/147 68/109/118 66/108/117 83/110/148
s 5
f 78/182/130 77/176/129 86/180/149 87/187/150
s off
f 76/175/151 13/168/152 24/171/153 77/176/154
s 1
f 84/134/155 67/132/120 69/131/119 88/135/156
s off
f 80/154/157 89/149/158 17/144/159 72/148/160
s 1
f 81/16/133 82/17/134 90/19/161 20/20/21
f 83/110/135 81/111/136 20/113/21 19/114/20
f 88/135/162 69/131/122 70/133/121 91/136/163
f 82/17/145 84/18/146 27/21/30 90/19/161
f 85/112/147 83/110/148 19/114/20 22/115/24
s off
f 24/171/164 92/174/165 86/180/166 77/176/167
s 1
f 84/134/155 88/135/156 28/137/31 27/138/30
f 18/22/22 20/20/21 90/19/161 93/23/168
f 93/23/168 90/19/161 27/21/30 29/24/33
f 88/135/162 91/136/163 31/139/34 28/137/31
f 22/54/24 25/60/25 94/61/169 95/55/170
f 95/55/170 94/61/169 30/62/35 31/59/34
s off
f 17/144/171 89/149/172 34/150/173 16/145/174
f 36/155/175 89/149/176 80/154/177 96/159/178
f 35/173/179 92/174/180 24/171/181 23/170/182
f 86/180/183 92/174/184 41/178/185 97/184/186
f 98/165/187 37/160/188 36/155/189 96/159/190
f 41/178/191 40/185/192 99/188/193 97/184/194
f 98/74/195 99/75/196 40/72/197 37/71/198
f 34/150/199 89/149/200 36/155/201 38/156/202
f 41/178/203 92/174/204 35/173/205 39/179/206
f 74/68/207 73/67/208 76/66/209 75/69/210 100/70/211
s 1
f 68/37/212 85/48/213 101/49/214 102/50/215 103/38/216
s 4
f 80/154/132 79/158/131 103/163/217 102/164/218 96/159/219
s 1
f 91/51/220 70/47/221 104/46/222 105/52/223 106/53/224
s 5
f 87/187/150 86/180/149 97/184/225 105/189/226 104/190/227
s 4
f 107/166/228 98/165/229 96/159/219 102/164/218 101/167/230
s off
f 108/76/231 99/75/232 98/74/233 107/77/234 109/78/235
s 5
f 99/188/236 108/191/237 106/192/238 105/189/226 97/184/225
s 1
f 101/49/214 85/48/213 22/54/24 95/55/170 109/56/239 107/57/240
f 91/51/220 106/53/224 108/58/241 109/56/242 95/55/170 31/59/34
f 10/79/11 7/80/8 9/81/7 44/82/75 1/83/2 3/84/1 5/85/5 50/86/82
f 62/35/106 60/34/105 68/37/212 103/38/216 79/39/243 71/40/244 74/41/245 100/42/246
f 63/36/109 62/35/110 100/42/247 75/43/248 78/44/249 87/45/250 104/46/222 70/47/221
f 94/87/169 25/88/25 21/89/23 18/90/22 93/91/168 29/92/33 26/93/32 30/94/35
